solid Fermo Vetro 3d
facet normal -0.38852026653594707 -0.921440178465665 -0.0
  outer loop
    vertex 1.786474508437579 0.10942352531273616 3.0
    vertex 1.4092343859728471 0.2684847821944409 1.762479051592436e-16
    vertex 1.786474508437579 0.10942352531273616 1.762479051592436e-16
  endloop
endfacet
facet normal -0.38852026653594707 -0.921440178465665 -0.0
  outer loop
    vertex 1.4092343859728471 0.2684847821944409 1.762479051592436e-16
    vertex 1.786474508437579 0.10942352531273616 3.0
    vertex 1.4092343859728471 0.2684847821944409 3.0
  endloop
endfacet
facet normal -0.5257311121191329 -0.8506508083520403 -0.0
  outer loop
    vertex 1.4092343859728471 0.2684847821944409 3.0
    vertex 1.0609756247239157 0.48372053352621497 1.762479051592436e-16
    vertex 1.4092343859728471 0.2684847821944409 1.762479051592436e-16
  endloop
endfacet
facet normal -0.5257311121191329 -0.8506508083520403 -0.0
  outer loop
    vertex 1.0609756247239157 0.48372053352621497 1.762479051592436e-16
    vertex 1.4092343859728471 0.2684847821944409 3.0
    vertex 1.0609756247239157 0.48372053352621497 3.0
  endloop
endfacet
facet normal -0.6504096051773638 -0.759583665894038 -0.0
  outer loop
    vertex 1.0609756247239157 0.48372053352621497 3.0
    vertex 0.7499999999999997 0.75 1.762479051592436e-16
    vertex 1.0609756247239157 0.48372053352621497 1.762479051592436e-16
  endloop
endfacet
facet normal -0.6504096051773638 -0.759583665894038 -0.0
  outer loop
    vertex 0.7499999999999997 0.75 1.762479051592436e-16
    vertex 1.0609756247239157 0.48372053352621497 3.0
    vertex 0.7499999999999997 0.75 3.0
  endloop
endfacet
facet normal -0.7595836658940381 -0.6504096051773638 -0.0
  outer loop
    vertex 0.48372053352621497 1.0609756247239157 3.0
    vertex 0.7499999999999997 0.75 1.762479051592436e-16
    vertex 0.7499999999999997 0.75 3.0
  endloop
endfacet
facet normal -0.7595836658940381 -0.6504096051773638 -0.0
  outer loop
    vertex 0.7499999999999997 0.75 1.762479051592436e-16
    vertex 0.48372053352621497 1.0609756247239157 3.0
    vertex 0.48372053352621497 1.0609756247239157 1.762479051592436e-16
  endloop
endfacet
facet normal -0.24204789385064066 -0.9702643026941005 0.0
  outer loop
    vertex 2.1837033605383875 0.010328457339261021 3.0
    vertex 1.786474508437579 0.10942352531273616 1.762479051592436e-16
    vertex 2.1837033605383875 0.010328457339261021 1.762479051592436e-16
  endloop
endfacet
facet normal -0.24204789385064066 -0.9702643026941005 0.0
  outer loop
    vertex 1.786474508437579 0.10942352531273616 1.762479051592436e-16
    vertex 2.1837033605383875 0.010328457339261021 3.0
    vertex 1.786474508437579 0.10942352531273616 3.0
  endloop
endfacet
facet normal 0.1018918895214563 -0.9947954778997277 2.457145274714072e-32
  outer loop
    vertex 4.778973694532168 6.720489193637503 2.6
    vertex 4.259586231460258 6.667290952208136 4.229949723821846e-15
    vertex 4.778973694532168 6.720489193637503 4.229949723821846e-15
  endloop
endfacet
facet normal 0.1018918895214563 -0.9947954778997277 2.457145274714072e-32
  outer loop
    vertex 4.259586231460258 6.667290952208136 4.229949723821846e-15
    vertex 4.778973694532168 6.720489193637503 2.6
    vertex 4.259586231460258 6.667290952208136 2.6
  endloop
endfacet
facet normal 0.9124641001917736 -0.4091567741846849 -4.3978566625339406e-32
  outer loop
    vertex 3.018816008423955 5.770834035154079 4.229949723821846e-15
    vertex 2.805193305402489 5.2944321770119664 2.6
    vertex 2.805193305402489 5.2944321770119664 4.229949723821846e-15
  endloop
endfacet
facet normal 0.9124641001917736 -0.4091567741846849 -4.3978566625339406e-32
  outer loop
    vertex 2.805193305402489 5.2944321770119664 2.6
    vertex 3.018816008423955 5.770834035154079 4.229949723821846e-15
    vertex 3.018816008423955 5.770834035154079 2.6
  endloop
endfacet
facet normal 0.9872702055285579 -0.1590520080841458 -5.639510461236201e-32
  outer loop
    vertex 2.805193305402489 5.2944321770119664 4.229949723821846e-15
    vertex 2.7221514934817836 4.778973694532165 2.6
    vertex 2.7221514934817836 4.778973694532165 4.229949723821846e-15
  endloop
endfacet
facet normal 0.9872702055285579 -0.1590520080841458 -5.639510461236201e-32
  outer loop
    vertex 2.7221514934817836 4.778973694532165 2.6
    vertex 2.805193305402489 5.2944321770119664 4.229949723821846e-15
    vertex 2.805193305402489 5.2944321770119664 2.6
  endloop
endfacet
facet normal 0.9947954778997276 0.10189188952145682 -6.496840941736905e-32
  outer loop
    vertex 2.7221514934817836 4.778973694532165 4.229949723821846e-15
    vertex 2.7753497349111513 4.259586231460253 2.6
    vertex 2.7753497349111513 4.259586231460253 4.229949723821846e-15
  endloop
endfacet
facet normal 0.9947954778997276 0.10189188952145682 -6.496840941736905e-32
  outer loop
    vertex 2.7753497349111513 4.259586231460253 2.6
    vertex 2.7221514934817836 4.778973694532165 4.229949723821846e-15
    vertex 2.7221514934817836 4.778973694532165 2.6
  endloop
endfacet
facet normal 0.3558920232404812 -0.9345270824292877 6.919139110671567e-33
  outer loop
    vertex 4.259586231460258 6.667290952208136 2.6
    vertex 3.7716651850762197 6.481478029667855 4.229949723821846e-15
    vertex 4.259586231460258 6.667290952208136 4.229949723821846e-15
  endloop
endfacet
facet normal 0.3558920232404812 -0.9345270824292877 6.919139110671567e-33
  outer loop
    vertex 3.7716651850762197 6.481478029667855 4.229949723821846e-15
    vertex 4.259586231460258 6.667290952208136 2.6
    vertex 3.7716651850762197 6.481478029667855 2.6
  endloop
endfacet
facet normal 0.5856387037150427 -0.8105722106703168 -1.1204702421771746e-32
  outer loop
    vertex 3.7716651850762197 6.481478029667855 2.6
    vertex 3.348461568363476 6.175713269617409 4.229949723821846e-15
    vertex 3.7716651850762197 6.481478029667855 4.229949723821846e-15
  endloop
endfacet
facet normal 0.5856387037150427 -0.8105722106703168 -1.1204702421771746e-32
  outer loop
    vertex 3.348461568363476 6.175713269617409 4.229949723821846e-15
    vertex 3.7716651850762197 6.481478029667855 2.6
    vertex 3.348461568363476 6.175713269617409 2.6
  endloop
endfacet
facet normal 0.9345270824292878 0.3558920232404809 -6.911422448595534e-32
  outer loop
    vertex 2.7753497349111513 4.259586231460253 4.229949723821846e-15
    vertex 2.9611626574514314 3.7716651850762166 2.6
    vertex 2.9611626574514314 3.7716651850762166 4.229949723821846e-15
  endloop
endfacet
facet normal 0.9345270824292878 0.3558920232404809 -6.911422448595534e-32
  outer loop
    vertex 2.9611626574514314 3.7716651850762166 2.6
    vertex 2.7753497349111513 4.259586231460253 4.229949723821846e-15
    vertex 2.7753497349111513 4.259586231460253 2.6
  endloop
endfacet
facet normal 0.8105722106703173 0.585638703715042 -6.85500193724801e-32
  outer loop
    vertex 2.9611626574514314 3.7716651850762166 4.229949723821846e-15
    vertex 3.266927417501877 3.3484615683634726 2.6
    vertex 3.266927417501877 3.3484615683634726 4.229949723821846e-15
  endloop
endfacet
facet normal 0.8105722106703173 0.585638703715042 -6.85500193724801e-32
  outer loop
    vertex 3.266927417501877 3.3484615683634726 2.6
    vertex 2.9611626574514314 3.7716651850762166 4.229949723821846e-15
    vertex 2.9611626574514314 3.7716651850762166 2.6
  endloop
endfacet
facet normal 0.631378182288077 0.7754750743451423 -6.33142437230336e-32
  outer loop
    vertex 3.266927417501877 3.3484615683634726 2.6
    vertex 3.671806651965208 3.018816008423952 4.229949723821846e-15
    vertex 3.266927417501877 3.3484615683634726 4.229949723821846e-15
  endloop
endfacet
facet normal 0.631378182288077 0.7754750743451423 -6.33142437230336e-32
  outer loop
    vertex 3.671806651965208 3.018816008423952 4.229949723821846e-15
    vertex 3.266927417501877 3.3484615683634726 2.6
    vertex 3.671806651965208 3.018816008423952 2.6
  endloop
endfacet
facet normal 0.7754750743451418 -0.6313781822880774 -2.8564962000817576e-32
  outer loop
    vertex 3.348461568363476 6.175713269617409 4.229949723821846e-15
    vertex 3.018816008423955 5.770834035154079 2.6
    vertex 3.018816008423955 5.770834035154079 4.229949723821846e-15
  endloop
endfacet
facet normal 0.7754750743451418 -0.6313781822880774 -2.8564962000817576e-32
  outer loop
    vertex 3.018816008423955 5.770834035154079 2.6
    vertex 3.348461568363476 6.175713269617409 4.229949723821846e-15
    vertex 3.348461568363476 6.175713269617409 2.6
  endloop
endfacet
facet normal 0.4091567741846854 0.9124641001917733 -5.376370699559732e-32
  outer loop
    vertex 3.671806651965208 3.018816008423952 2.6
    vertex 4.14820851010732 2.8051933054024856 4.229949723821846e-15
    vertex 3.671806651965208 3.018816008423952 4.229949723821846e-15
  endloop
endfacet
facet normal 0.4091567741846854 0.9124641001917733 -5.376370699559732e-32
  outer loop
    vertex 4.14820851010732 2.8051933054024856 4.229949723821846e-15
    vertex 3.671806651965208 3.018816008423952 2.6
    vertex 4.14820851010732 2.8051933054024856 2.6
  endloop
endfacet
facet normal 0.1590520080841458 0.9872702055285579 -4.0549262485137753e-32
  outer loop
    vertex 4.14820851010732 2.8051933054024856 2.6
    vertex 4.663666992587121 2.72215149348178 4.229949723821846e-15
    vertex 4.14820851010732 2.8051933054024856 4.229949723821846e-15
  endloop
endfacet
facet normal 0.1590520080841458 0.9872702055285579 -4.0549262485137753e-32
  outer loop
    vertex 4.663666992587121 2.72215149348178 4.229949723821846e-15
    vertex 4.14820851010732 2.8051933054024856 2.6
    vertex 4.663666992587121 2.72215149348178 2.6
  endloop
endfacet
facet normal -0.10189188952145696 0.9947954778997277 -2.457145274714068e-32
  outer loop
    vertex 4.663666992587121 2.72215149348178 2.6
    vertex 5.1830544556590326 2.775349734911148 4.229949723821846e-15
    vertex 4.663666992587121 2.72215149348178 4.229949723821846e-15
  endloop
endfacet
facet normal -0.10189188952145696 0.9947954778997277 -2.457145274714068e-32
  outer loop
    vertex 5.1830544556590326 2.775349734911148 4.229949723821846e-15
    vertex 4.663666992587121 2.72215149348178 2.6
    vertex 5.1830544556590326 2.775349734911148 2.6
  endloop
endfacet
facet normal -0.35589202324048 0.9345270824292883 -6.919139110671653e-33
  outer loop
    vertex 5.1830544556590326 2.775349734911148 2.6
    vertex 5.6709755020430705 2.961162657451428 4.229949723821846e-15
    vertex 5.1830544556590326 2.775349734911148 4.229949723821846e-15
  endloop
endfacet
facet normal -0.35589202324048 0.9345270824292883 -6.919139110671653e-33
  outer loop
    vertex 5.6709755020430705 2.961162657451428 4.229949723821846e-15
    vertex 5.1830544556590326 2.775349734911148 2.6
    vertex 5.6709755020430705 2.961162657451428 2.6
  endloop
endfacet
facet normal -0.9345270824292886 -0.35589202324047886 6.911422448595532e-32
  outer loop
    vertex 6.481478029667859 5.670975502043067 2.6
    vertex 6.6672909522081385 5.183054455659029 4.229949723821846e-15
    vertex 6.6672909522081385 5.183054455659029 2.6
  endloop
endfacet
facet normal -0.9345270824292886 -0.35589202324047886 6.911422448595532e-32
  outer loop
    vertex 6.6672909522081385 5.183054455659029 4.229949723821846e-15
    vertex 6.481478029667859 5.670975502043067 2.6
    vertex 6.481478029667859 5.670975502043067 4.229949723821846e-15
  endloop
endfacet
facet normal -0.8105722106703168 -0.5856387037150427 6.85500193724801e-32
  outer loop
    vertex 6.175713269617414 6.09417911875581 2.6
    vertex 6.481478029667859 5.670975502043067 4.229949723821846e-15
    vertex 6.481478029667859 5.670975502043067 2.6
  endloop
endfacet
facet normal -0.8105722106703168 -0.5856387037150427 6.85500193724801e-32
  outer loop
    vertex 6.481478029667859 5.670975502043067 4.229949723821846e-15
    vertex 6.175713269617414 6.09417911875581 2.6
    vertex 6.175713269617414 6.09417911875581 4.229949723821846e-15
  endloop
endfacet
facet normal -0.9872702055285578 0.15905200808414646 5.639510461236199e-32
  outer loop
    vertex 6.7204891936375075 4.6636669925871175 2.6
    vertex 6.637447381716801 4.148208510107317 4.229949723821846e-15
    vertex 6.637447381716801 4.148208510107317 2.6
  endloop
endfacet
facet normal -0.9872702055285578 0.15905200808414646 5.639510461236199e-32
  outer loop
    vertex 6.637447381716801 4.148208510107317 4.229949723821846e-15
    vertex 6.7204891936375075 4.6636669925871175 2.6
    vertex 6.7204891936375075 4.6636669925871175 4.229949723821846e-15
  endloop
endfacet
facet normal -0.15905200808414383 -0.9872702055285582 4.0549262485137633e-32
  outer loop
    vertex 5.29443217701197 6.6374473817167985 2.6
    vertex 4.778973694532168 6.720489193637503 4.229949723821846e-15
    vertex 5.29443217701197 6.6374473817167985 4.229949723821846e-15
  endloop
endfacet
facet normal -0.15905200808414383 -0.9872702055285582 4.0549262485137633e-32
  outer loop
    vertex 4.778973694532168 6.720489193637503 4.229949723821846e-15
    vertex 5.29443217701197 6.6374473817167985 2.6
    vertex 4.778973694532168 6.720489193637503 2.6
  endloop
endfacet
facet normal -0.9947954778997274 -0.10189188952145897 6.49684094173691e-32
  outer loop
    vertex 6.6672909522081385 5.183054455659029 2.6
    vertex 6.7204891936375075 4.6636669925871175 4.229949723821846e-15
    vertex 6.7204891936375075 4.6636669925871175 2.6
  endloop
endfacet
facet normal -0.9947954778997274 -0.10189188952145897 6.49684094173691e-32
  outer loop
    vertex 6.7204891936375075 4.6636669925871175 4.229949723821846e-15
    vertex 6.6672909522081385 5.183054455659029 2.6
    vertex 6.6672909522081385 5.183054455659029 4.229949723821846e-15
  endloop
endfacet
facet normal 0.0 0.0 1.0
  outer loop
    vertex 1.786474508437579 0.10942352531273616 3.0
    vertex 1.7213752625152992 4.739472773640444 3.0
    vertex 1.4092343859728471 0.2684847821944409 3.0
  endloop
endfacet
facet normal 0.0 0.0 1.0
  outer loop
    vertex 1.7213752625152992 4.739472773640444 3.0
    vertex 1.786474508437579 0.10942352531273616 3.0
    vertex 1.818897717710256 3.9624113233486944 3.0
  endloop
endfacet
facet normal 0.0 0.0 1.0
  outer loop
    vertex 1.818897717710256 3.9624113233486944 3.0
    vertex 1.786474508437579 0.10942352531273616 3.0
    vertex 2.1837033605383875 0.010328457339261021 3.0
  endloop
endfacet
facet normal 0.0 0.0 1.0
  outer loop
    vertex 1.818897717710256 3.9624113233486944 3.0
    vertex 2.1837033605383875 0.010328457339261021 3.0
    vertex 2.114215478376673 3.237068268627866 3.0
  endloop
endfacet
facet normal 0.0 0.0 1.0
  outer loop
    vertex 2.114215478376673 3.237068268627866 3.0
    vertex 2.1837033605383875 0.010328457339261021 3.0
    vertex 2.587203127160811 2.6128745399711084 3.0
  endloop
endfacet
facet normal 0.0 0.0 1.0
  outer loop
    vertex 2.587203127160811 2.6128745399711084 3.0
    vertex 2.1837033605383875 0.010328457339261021 3.0
    vertex 3.2056273374470754 2.132367908457474 3.0
  endloop
endfacet
facet normal 0.0 0.0 1.0
  outer loop
    vertex 3.2056273374470754 2.132367908457474 3.0
    vertex 2.1837033605383875 0.010328457339261021 3.0
    vertex 3.9273435212987886 1.8282941069498602 3.0
  endloop
endfacet
facet normal 0.0 0.0 1.0
  outer loop
    vertex 3.9273435212987886 1.8282941069498602 3.0
    vertex 2.1837033605383875 0.010328457339261021 3.0
    vertex 15.0 0.0 3.0
  endloop
endfacet
facet normal 0.0 0.0 1.0
  outer loop
    vertex 3.9273435212987886 1.8282941069498602 3.0
    vertex 15.0 0.0 3.0
    vertex 4.703167913478842 1.7213752625152958 3.0
  endloop
endfacet
facet normal 0.0 0.0 1.0
  outer loop
    vertex 4.703167913478842 1.7213752625152958 3.0
    vertex 15.0 0.0 3.0
    vertex 5.480229363770592 1.818897717710252 3.0
  endloop
endfacet
facet normal 0.0 0.0 1.0
  outer loop
    vertex 5.480229363770592 1.818897717710252 3.0
    vertex 15.0 0.0 3.0
    vertex 6.205572418491421 2.1142154783766696 3.0
  endloop
endfacet
facet normal 0.0 0.0 1.0
  outer loop
    vertex 6.205572418491421 2.1142154783766696 3.0
    vertex 15.0 0.0 3.0
    vertex 6.829766147148177 2.587203127160807 3.0
  endloop
endfacet
facet normal 0.0 0.0 1.0
  outer loop
    vertex 6.829766147148177 2.587203127160807 3.0
    vertex 15.0 0.0 3.0
    vertex 7.310272778661814 3.2056273374470714 3.0
  endloop
endfacet
facet normal 0.0 0.0 1.0
  outer loop
    vertex 7.310272778661814 3.2056273374470714 3.0
    vertex 15.0 0.0 3.0
    vertex 7.6143465801694274 3.9273435212987846 3.0
  endloop
endfacet
facet normal 0.0 0.0 1.0
  outer loop
    vertex 7.6143465801694274 3.9273435212987846 3.0
    vertex 15.0 0.0 3.0
    vertex 7.721265424603991 4.703167913478837 3.0
  endloop
endfacet
facet normal 0.0 0.0 1.0
  outer loop
    vertex 7.721265424603991 4.703167913478837 3.0
    vertex 15.0 0.0 3.0
    vertex 9.437722574073913 9.437722574073915 3.0
  endloop
endfacet
facet normal 0.0 0.0 1.0
  outer loop
    vertex 9.437722574073913 9.437722574073915 3.0
    vertex 15.0 0.0 3.0
    vertex 15.0 9.437722574073913 3.0
  endloop
endfacet
facet normal 0.0 0.0 1.0
  outer loop
    vertex 0.0 15.0 3.0
    vertex 2.6128745399711115 6.855437559958476 3.0
    vertex 9.437722574073913 15.0 3.0
  endloop
endfacet
facet normal 0.0 0.0 1.0
  outer loop
    vertex 2.6128745399711115 6.855437559958476 3.0
    vertex 0.0 15.0 3.0
    vertex 2.1323679084574767 6.237013349672212 3.0
  endloop
endfacet
facet normal 0.0 0.0 1.0
  outer loop
    vertex 2.1323679084574767 6.237013349672212 3.0
    vertex 0.0 15.0 3.0
    vertex 0.010328457339261021 2.183703360538387 3.0
  endloop
endfacet
facet normal 0.0 0.0 1.0
  outer loop
    vertex 2.1323679084574767 6.237013349672212 3.0
    vertex 0.010328457339261021 2.183703360538387 3.0
    vertex 0.10942352531273616 1.7864745084375788 3.0
  endloop
endfacet
facet normal 0.0 0.0 1.0
  outer loop
    vertex 2.1323679084574767 6.237013349672212 3.0
    vertex 0.10942352531273616 1.7864745084375788 3.0
    vertex 1.8282941069498626 5.515297165820497 3.0
  endloop
endfacet
facet normal 0.0 0.0 1.0
  outer loop
    vertex 1.8282941069498626 5.515297165820497 3.0
    vertex 0.10942352531273616 1.7864745084375788 3.0
    vertex 0.2684847821944409 1.4092343859728471 3.0
  endloop
endfacet
facet normal 0.0 0.0 1.0
  outer loop
    vertex 1.8282941069498626 5.515297165820497 3.0
    vertex 0.2684847821944409 1.4092343859728471 3.0
    vertex 0.48372053352621497 1.0609756247239157 3.0
  endloop
endfacet
facet normal 0.0 0.0 1.0
  outer loop
    vertex 1.8282941069498626 5.515297165820497 3.0
    vertex 0.48372053352621497 1.0609756247239157 3.0
    vertex 0.7499999999999997 0.75 3.0
  endloop
endfacet
facet normal 0.0 0.0 1.0
  outer loop
    vertex 1.8282941069498626 5.515297165820497 3.0
    vertex 0.7499999999999997 0.75 3.0
    vertex 1.0609756247239157 0.48372053352621497 3.0
  endloop
endfacet
facet normal 0.0 0.0 1.0
  outer loop
    vertex 1.8282941069498626 5.515297165820497 3.0
    vertex 1.0609756247239157 0.48372053352621497 3.0
    vertex 1.7213752625152992 4.739472773640444 3.0
  endloop
endfacet
facet normal 0.0 0.0 1.0
  outer loop
    vertex 1.7213752625152992 4.739472773640444 3.0
    vertex 1.0609756247239157 0.48372053352621497 3.0
    vertex 1.4092343859728471 0.2684847821944409 3.0
  endloop
endfacet
facet normal 0.0 0.0 1.0
  outer loop
    vertex 9.437722574073913 15.0 3.0
    vertex 2.6128745399711115 6.855437559958476 3.0
    vertex 3.2370682686278673 7.328425208742613 3.0
  endloop
endfacet
facet normal 0.0 0.0 1.0
  outer loop
    vertex 9.437722574073913 15.0 3.0
    vertex 3.2370682686278673 7.328425208742613 3.0
    vertex 3.962411323348698 7.62374296940903 3.0
  endloop
endfacet
facet normal 0.0 0.0 1.0
  outer loop
    vertex 9.437722574073913 15.0 3.0
    vertex 3.962411323348698 7.62374296940903 3.0
    vertex 4.739472773640447 7.721265424603987 3.0
  endloop
endfacet
facet normal 0.0 0.0 1.0
  outer loop
    vertex 9.437722574073913 15.0 3.0
    vertex 4.739472773640447 7.721265424603987 3.0
    vertex 5.5152971658205 7.614346580169425 3.0
  endloop
endfacet
facet normal 0.0 0.0 1.0
  outer loop
    vertex 9.437722574073913 15.0 3.0
    vertex 5.5152971658205 7.614346580169425 3.0
    vertex 6.237013349672216 7.310272778661809 3.0
  endloop
endfacet
facet normal 0.0 0.0 1.0
  outer loop
    vertex 9.437722574073913 15.0 3.0
    vertex 6.237013349672216 7.310272778661809 3.0
    vertex 6.85543755995848 6.829766147148173 3.0
  endloop
endfacet
facet normal 0.0 0.0 1.0
  outer loop
    vertex 9.437722574073913 15.0 3.0
    vertex 6.85543755995848 6.829766147148173 3.0
    vertex 7.328425208742618 6.205572418491418 3.0
  endloop
endfacet
facet normal 0.0 0.0 1.0
  outer loop
    vertex 9.437722574073913 15.0 3.0
    vertex 7.328425208742618 6.205572418491418 3.0
    vertex 7.623742969409035 5.4802293637705874 3.0
  endloop
endfacet
facet normal 0.0 0.0 1.0
  outer loop
    vertex 9.437722574073913 15.0 3.0
    vertex 7.623742969409035 5.4802293637705874 3.0
    vertex 7.721265424603991 4.703167913478837 3.0
  endloop
endfacet
facet normal 0.0 0.0 1.0
  outer loop
    vertex 9.437722574073913 15.0 3.0
    vertex 7.721265424603991 4.703167913478837 3.0
    vertex 9.437722574073913 9.437722574073915 3.0
  endloop
endfacet
facet normal 1.0 0.0 0.0
  outer loop
    vertex 15.0 9.437722574073913 0.0
    vertex 15.0 0.0 3.0
    vertex 15.0 0.0 0.0
  endloop
endfacet
facet normal 1.0 0.0 0.0
  outer loop
    vertex 15.0 0.0 3.0
    vertex 15.0 9.437722574073913 0.0
    vertex 15.0 9.437722574073913 3.0
  endloop
endfacet
facet normal -0.9999989392938502 -0.0005088730437753346 -0.0013647195315438132
  outer loop
    vertex 0.0 15.0 3.0
    vertex 0.010328457339261021 2.183703360538387 1.762479051592436e-16
    vertex 0.010328457339261021 2.183703360538387 3.0
  endloop
endfacet
facet normal -0.9999989392938502 -0.0005088730437753346 -0.0013647195315438132
  outer loop
    vertex 0.010328457339261021 2.183703360538387 1.762479051592436e-16
    vertex 0.0 15.0 3.0
    vertex 0.0 15.0 0.0
  endloop
endfacet
facet normal 0.0 1.0 0.0
  outer loop
    vertex 0.0 15.0 3.0
    vertex 9.437722574073913 15.0 0.0
    vertex 0.0 15.0 0.0
  endloop
endfacet
facet normal 0.0 1.0 0.0
  outer loop
    vertex 9.437722574073913 15.0 0.0
    vertex 0.0 15.0 3.0
    vertex 9.437722574073913 15.0 3.0
  endloop
endfacet
facet normal -0.9124641001917737 0.40915677418468427 4.397856662533944e-32
  outer loop
    vertex 6.637447381716801 4.148208510107317 2.6
    vertex 6.423824678695336 3.6718066519652046 4.229949723821846e-15
    vertex 6.423824678695336 3.6718066519652046 2.6
  endloop
endfacet
facet normal -0.9124641001917737 0.40915677418468427 4.397856662533944e-32
  outer loop
    vertex 6.423824678695336 3.6718066519652046 4.229949723821846e-15
    vertex 6.637447381716801 4.148208510107317 2.6
    vertex 6.637447381716801 4.148208510107317 4.229949723821846e-15
  endloop
endfacet
facet normal -0.6313781822880778 -0.7754750743451416 6.331424372303364e-32
  outer loop
    vertex 6.175713269617414 6.09417911875581 2.6
    vertex 5.770834035154082 6.423824678695332 4.229949723821846e-15
    vertex 6.175713269617414 6.09417911875581 4.229949723821846e-15
  endloop
endfacet
facet normal -0.6313781822880778 -0.7754750743451416 6.331424372303364e-32
  outer loop
    vertex 5.770834035154082 6.423824678695332 4.229949723821846e-15
    vertex 6.175713269617414 6.09417911875581 2.6
    vertex 5.770834035154082 6.423824678695332 2.6
  endloop
endfacet
facet normal -0.409156774184686 -0.9124641001917729 5.376370699559734e-32
  outer loop
    vertex 5.770834035154082 6.423824678695332 2.6
    vertex 5.29443217701197 6.6374473817167985 4.229949723821846e-15
    vertex 5.770834035154082 6.423824678695332 4.229949723821846e-15
  endloop
endfacet
facet normal -0.409156774184686 -0.9124641001917729 5.376370699559734e-32
  outer loop
    vertex 5.29443217701197 6.6374473817167985 4.229949723821846e-15
    vertex 5.770834035154082 6.423824678695332 2.6
    vertex 5.29443217701197 6.6374473817167985 2.6
  endloop
endfacet
facet normal -0.0005088730437753348 -0.9999989392938502 -0.0013647195315438134
  outer loop
    vertex 15.0 0.0 3.0
    vertex 2.1837033605383875 0.010328457339261021 1.762479051592436e-16
    vertex 15.0 0.0 0.0
  endloop
endfacet
facet normal -0.0005088730437753348 -0.9999989392938502 -0.0013647195315438134
  outer loop
    vertex 2.1837033605383875 0.010328457339261021 1.762479051592436e-16
    vertex 15.0 0.0 3.0
    vertex 2.1837033605383875 0.010328457339261021 3.0
  endloop
endfacet
facet normal 1.0 0.0 0.0
  outer loop
    vertex 9.437722574073913 15.0 0.0
    vertex 9.437722574073913 9.437722574073915 3.0
    vertex 9.437722574073913 9.437722574073915 0.0
  endloop
endfacet
facet normal 1.0 0.0 0.0
  outer loop
    vertex 9.437722574073913 9.437722574073915 3.0
    vertex 9.437722574073913 15.0 0.0
    vertex 9.437722574073913 15.0 3.0
  endloop
endfacet
facet normal 5.502851592131309e-16 1.0 0.0
  outer loop
    vertex 9.437722574073913 9.437722574073915 3.0
    vertex 15.0 9.437722574073913 0.0
    vertex 9.437722574073913 9.437722574073915 0.0
  endloop
endfacet
facet normal 5.502851592131309e-16 1.0 0.0
  outer loop
    vertex 15.0 9.437722574073913 0.0
    vertex 9.437722574073913 9.437722574073915 3.0
    vertex 15.0 9.437722574073913 3.0
  endloop
endfacet
facet normal -0.7896553171536062 0.6135507151744165 1.0927832284592251e-32
  outer loop
    vertex 7.310272778661814 3.2056273374470714 3.0
    vertex 6.829766147148177 2.587203127160807 2.6
    vertex 6.829766147148177 2.587203127160807 3.0
  endloop
endfacet
facet normal -0.7896553171536062 0.6135507151744165 1.0927832284592251e-32
  outer loop
    vertex 6.829766147148177 2.587203127160807 2.6
    vertex 7.310272778661814 3.2056273374470714 3.0
    vertex 7.310272778661814 3.2056273374470714 2.6
  endloop
endfacet
facet normal -0.13652284727434955 -0.9906369224756892 4.7312713531350647e-32
  outer loop
    vertex 5.5152971658205 7.614346580169425 3.0
    vertex 4.739472773640447 7.721265424603987 2.6
    vertex 5.5152971658205 7.614346580169425 2.6
  endloop
endfacet
facet normal -0.13652284727434955 -0.9906369224756892 4.7312713531350647e-32
  outer loop
    vertex 4.739472773640447 7.721265424603987 2.6
    vertex 5.5152971658205 7.614346580169425 3.0
    vertex 4.739472773640447 7.721265424603987 3.0
  endloop
endfacet
facet normal -0.6039498544817434 0.7970223166709205 -5.2172684606529186e-33
  outer loop
    vertex 6.205572418491421 2.1142154783766696 3.0
    vertex 6.829766147148177 2.587203127160807 2.6
    vertex 6.205572418491421 2.1142154783766696 2.6
  endloop
endfacet
facet normal -0.6039498544817434 0.7970223166709205 -5.2172684606529186e-33
  outer loop
    vertex 6.829766147148177 2.587203127160807 2.6
    vertex 6.205572418491421 2.1142154783766696 3.0
    vertex 6.829766147148177 2.587203127160807 3.0
  endloop
endfacet
facet normal -0.9906369224756892 0.13652284727434955 3.993438171575396e-32
  outer loop
    vertex 7.721265424603991 4.703167913478837 3.0
    vertex 7.6143465801694274 3.9273435212987846 2.6
    vertex 7.6143465801694274 3.9273435212987846 3.0
  endloop
endfacet
facet normal -0.9906369224756892 0.13652284727434955 3.993438171575396e-32
  outer loop
    vertex 7.6143465801694274 3.9273435212987846 2.6
    vertex 7.721265424603991 4.703167913478837 3.0
    vertex 7.721265424603991 4.703167913478837 2.6
  endloop
endfacet
facet normal -0.12452475825764443 0.9922165008610143 -3.53647933693169e-32
  outer loop
    vertex 4.703167913478842 1.7213752625152958 3.0
    vertex 5.480229363770592 1.818897717710252 2.6
    vertex 4.703167913478842 1.7213752625152958 2.6
  endloop
endfacet
facet normal -0.12452475825764443 0.9922165008610143 -3.53647933693169e-32
  outer loop
    vertex 5.480229363770592 1.818897717710252 2.6
    vertex 4.703167913478842 1.7213752625152958 3.0
    vertex 5.480229363770592 1.818897717710252 3.0
  endloop
endfacet
facet normal -0.3882666463792721 -0.9215470749285646 5.603635045417892e-32
  outer loop
    vertex 6.237013349672216 7.310272778661809 3.0
    vertex 5.5152971658205 7.614346580169425 2.6
    vertex 6.237013349672216 7.310272778661809 2.6
  endloop
endfacet
facet normal -0.3882666463792721 -0.9215470749285646 5.603635045417892e-32
  outer loop
    vertex 5.5152971658205 7.614346580169425 2.6
    vertex 6.237013349672216 7.310272778661809 3.0
    vertex 5.5152971658205 7.614346580169425 3.0
  endloop
endfacet
facet normal 0.12452475825764533 -0.9922165008610143 3.5364793369316853e-32
  outer loop
    vertex 4.739472773640447 7.721265424603987 3.0
    vertex 3.962411323348698 7.62374296940903 2.6
    vertex 4.739472773640447 7.721265424603987 2.6
  endloop
endfacet
facet normal 0.12452475825764533 -0.9922165008610143 3.5364793369316853e-32
  outer loop
    vertex 3.962411323348698 7.62374296940903 2.6
    vertex 4.739472773640447 7.721265424603987 3.0
    vertex 3.962411323348698 7.62374296940903 3.0
  endloop
endfacet
facet normal -0.9215470749285647 0.3882666463792715 2.632821931873933e-32
  outer loop
    vertex 7.6143465801694274 3.9273435212987846 3.0
    vertex 7.310272778661814 3.2056273374470714 2.6
    vertex 7.310272778661814 3.2056273374470714 3.0
  endloop
endfacet
facet normal -0.9215470749285647 0.3882666463792715 2.632821931873933e-32
  outer loop
    vertex 7.310272778661814 3.2056273374470714 2.6
    vertex 7.6143465801694274 3.9273435212987846 3.0
    vertex 7.6143465801694274 3.9273435212987846 2.6
  endloop
endfacet
facet normal -0.9261781644279581 -0.3770862073012725 5.8240545815943e-32
  outer loop
    vertex 7.328425208742618 6.205572418491418 3.0
    vertex 7.623742969409035 5.4802293637705874 2.6
    vertex 7.623742969409035 5.4802293637705874 3.0
  endloop
endfacet
facet normal -0.9261781644279581 -0.3770862073012725 5.8240545815943e-32
  outer loop
    vertex 7.623742969409035 5.4802293637705874 2.6
    vertex 7.328425208742618 6.205572418491418 3.0
    vertex 7.328425208742618 6.205572418491418 2.6
  endloop
endfacet
facet normal -0.7970223166709202 -0.603949854481744 6.169301268805628e-32
  outer loop
    vertex 6.85543755995848 6.829766147148173 3.0
    vertex 7.328425208742618 6.205572418491418 2.6
    vertex 7.328425208742618 6.205572418491418 3.0
  endloop
endfacet
facet normal -0.7970223166709202 -0.603949854481744 6.169301268805628e-32
  outer loop
    vertex 7.328425208742618 6.205572418491418 2.6
    vertex 6.85543755995848 6.829766147148173 3.0
    vertex 6.85543755995848 6.829766147148173 2.6
  endloop
endfacet
facet normal -0.9922165008610144 -0.12452475825764342 5.081908199352592e-32
  outer loop
    vertex 7.623742969409035 5.4802293637705874 3.0
    vertex 7.721265424603991 4.703167913478837 2.6
    vertex 7.721265424603991 4.703167913478837 3.0
  endloop
endfacet
facet normal -0.9922165008610144 -0.12452475825764342 5.081908199352592e-32
  outer loop
    vertex 7.721265424603991 4.703167913478837 2.6
    vertex 7.623742969409035 5.4802293637705874 3.0
    vertex 7.623742969409035 5.4802293637705874 2.6
  endloop
endfacet
facet normal -0.37708620730127324 0.9261781644279578 -2.1006820982248527e-32
  outer loop
    vertex 5.480229363770592 1.818897717710252 3.0
    vertex 6.205572418491421 2.1142154783766696 2.6
    vertex 5.480229363770592 1.818897717710252 2.6
  endloop
endfacet
facet normal -0.37708620730127324 0.9261781644279578 -2.1006820982248527e-32
  outer loop
    vertex 6.205572418491421 2.1142154783766696 2.6
    vertex 5.480229363770592 1.818897717710252 3.0
    vertex 6.205572418491421 2.1142154783766696 3.0
  endloop
endfacet
facet normal 0.37708620730127373 -0.9261781644279576 2.10068209822485e-32
  outer loop
    vertex 3.962411323348698 7.62374296940903 3.0
    vertex 3.2370682686278673 7.328425208742613 2.6
    vertex 3.962411323348698 7.62374296940903 2.6
  endloop
endfacet
facet normal 0.37708620730127373 -0.9261781644279576 2.10068209822485e-32
  outer loop
    vertex 3.2370682686278673 7.328425208742613 2.6
    vertex 3.962411323348698 7.62374296940903 3.0
    vertex 3.2370682686278673 7.328425208742613 3.0
  endloop
endfacet
facet normal -0.6135507151744165 -0.7896553171536062 6.094120269800243e-32
  outer loop
    vertex 6.85543755995848 6.829766147148173 3.0
    vertex 6.237013349672216 7.310272778661809 2.6
    vertex 6.85543755995848 6.829766147148173 2.6
  endloop
endfacet
facet normal -0.6135507151744165 -0.7896553171536062 6.094120269800243e-32
  outer loop
    vertex 6.237013349672216 7.310272778661809 2.6
    vertex 6.85543755995848 6.829766147148173 3.0
    vertex 6.237013349672216 7.310272778661809 3.0
  endloop
endfacet
facet normal 0.1365228472743512 0.9906369224756891 -4.731271353135072e-32
  outer loop
    vertex 3.9273435212987886 1.8282941069498602 3.0
    vertex 4.703167913478842 1.7213752625152958 2.6
    vertex 3.9273435212987886 1.8282941069498602 2.6
  endloop
endfacet
facet normal 0.1365228472743512 0.9906369224756891 -4.731271353135072e-32
  outer loop
    vertex 4.703167913478842 1.7213752625152958 2.6
    vertex 3.9273435212987886 1.8282941069498602 3.0
    vertex 4.703167913478842 1.7213752625152958 3.0
  endloop
endfacet
facet normal -5.27710849440258e-18 -5.27710849440258e-18 -1.0
  outer loop
    vertex 9.437722574073913 15.0 0.0
    vertex 0.010328457339261021 2.183703360538387 1.762479051592436e-16
    vertex 0.0 15.0 0.0
  endloop
endfacet
facet normal -5.27710849440258e-18 -5.27710849440258e-18 -1.0
  outer loop
    vertex 0.010328457339261021 2.183703360538387 1.762479051592436e-16
    vertex 9.437722574073913 15.0 0.0
    vertex 0.10942352531273616 1.7864745084375788 1.762479051592436e-16
  endloop
endfacet
facet normal -5.27710849440258e-18 -5.27710849440258e-18 -1.0
  outer loop
    vertex 0.10942352531273616 1.7864745084375788 1.762479051592436e-16
    vertex 9.437722574073913 15.0 0.0
    vertex 3.018816008423955 5.770834035154079 4.229949723821846e-15
  endloop
endfacet
facet normal -5.27710849440258e-18 -5.27710849440258e-18 -1.0
  outer loop
    vertex 0.10942352531273616 1.7864745084375788 1.762479051592436e-16
    vertex 3.018816008423955 5.770834035154079 4.229949723821846e-15
    vertex 0.2684847821944409 1.4092343859728471 1.762479051592436e-16
  endloop
endfacet
facet normal -5.27710849440258e-18 -5.27710849440258e-18 -1.0
  outer loop
    vertex 0.2684847821944409 1.4092343859728471 1.762479051592436e-16
    vertex 3.018816008423955 5.770834035154079 4.229949723821846e-15
    vertex 0.48372053352621497 1.0609756247239157 1.762479051592436e-16
  endloop
endfacet
facet normal -5.27710849440258e-18 -5.27710849440258e-18 -1.0
  outer loop
    vertex 0.48372053352621497 1.0609756247239157 1.762479051592436e-16
    vertex 3.018816008423955 5.770834035154079 4.229949723821846e-15
    vertex 0.7499999999999997 0.75 1.762479051592436e-16
  endloop
endfacet
facet normal -5.27710849440258e-18 -5.27710849440258e-18 -1.0
  outer loop
    vertex 0.7499999999999997 0.75 1.762479051592436e-16
    vertex 3.018816008423955 5.770834035154079 4.229949723821846e-15
    vertex 2.805193305402489 5.2944321770119664 4.229949723821846e-15
  endloop
endfacet
facet normal -5.27710849440258e-18 -5.27710849440258e-18 -1.0
  outer loop
    vertex 0.7499999999999997 0.75 1.762479051592436e-16
    vertex 2.805193305402489 5.2944321770119664 4.229949723821846e-15
    vertex 1.0609756247239157 0.48372053352621497 1.762479051592436e-16
  endloop
endfacet
facet normal -5.27710849440258e-18 -5.27710849440258e-18 -1.0
  outer loop
    vertex 1.0609756247239157 0.48372053352621497 1.762479051592436e-16
    vertex 2.805193305402489 5.2944321770119664 4.229949723821846e-15
    vertex 1.4092343859728471 0.2684847821944409 1.762479051592436e-16
  endloop
endfacet
facet normal -5.27710849440258e-18 -5.27710849440258e-18 -1.0
  outer loop
    vertex 1.4092343859728471 0.2684847821944409 1.762479051592436e-16
    vertex 2.805193305402489 5.2944321770119664 4.229949723821846e-15
    vertex 1.786474508437579 0.10942352531273616 1.762479051592436e-16
  endloop
endfacet
facet normal -5.27710849440258e-18 -5.27710849440258e-18 -1.0
  outer loop
    vertex 1.786474508437579 0.10942352531273616 1.762479051592436e-16
    vertex 2.805193305402489 5.2944321770119664 4.229949723821846e-15
    vertex 2.7221514934817836 4.778973694532165 4.229949723821846e-15
  endloop
endfacet
facet normal -5.27710849440258e-18 -5.27710849440258e-18 -1.0
  outer loop
    vertex 1.786474508437579 0.10942352531273616 1.762479051592436e-16
    vertex 2.7221514934817836 4.778973694532165 4.229949723821846e-15
    vertex 2.1837033605383875 0.010328457339261021 1.762479051592436e-16
  endloop
endfacet
facet normal -5.27710849440258e-18 -5.27710849440258e-18 -1.0
  outer loop
    vertex 3.018816008423955 5.770834035154079 4.229949723821846e-15
    vertex 9.437722574073913 15.0 0.0
    vertex 3.348461568363476 6.175713269617409 4.229949723821846e-15
  endloop
endfacet
facet normal -5.27710849440258e-18 -5.27710849440258e-18 -1.0
  outer loop
    vertex 3.348461568363476 6.175713269617409 4.229949723821846e-15
    vertex 9.437722574073913 15.0 0.0
    vertex 3.7716651850762197 6.481478029667855 4.229949723821846e-15
  endloop
endfacet
facet normal -5.27710849440258e-18 -5.27710849440258e-18 -1.0
  outer loop
    vertex 3.7716651850762197 6.481478029667855 4.229949723821846e-15
    vertex 9.437722574073913 15.0 0.0
    vertex 4.259586231460258 6.667290952208136 4.229949723821846e-15
  endloop
endfacet
facet normal -5.27710849440258e-18 -5.27710849440258e-18 -1.0
  outer loop
    vertex 4.259586231460258 6.667290952208136 4.229949723821846e-15
    vertex 9.437722574073913 15.0 0.0
    vertex 4.778973694532168 6.720489193637503 4.229949723821846e-15
  endloop
endfacet
facet normal -5.27710849440258e-18 -5.27710849440258e-18 -1.0
  outer loop
    vertex 4.778973694532168 6.720489193637503 4.229949723821846e-15
    vertex 9.437722574073913 15.0 0.0
    vertex 5.29443217701197 6.6374473817167985 4.229949723821846e-15
  endloop
endfacet
facet normal -5.27710849440258e-18 -5.27710849440258e-18 -1.0
  outer loop
    vertex 5.29443217701197 6.6374473817167985 4.229949723821846e-15
    vertex 9.437722574073913 15.0 0.0
    vertex 5.770834035154082 6.423824678695332 4.229949723821846e-15
  endloop
endfacet
facet normal -5.27710849440258e-18 -5.27710849440258e-18 -1.0
  outer loop
    vertex 5.770834035154082 6.423824678695332 4.229949723821846e-15
    vertex 9.437722574073913 15.0 0.0
    vertex 6.175713269617414 6.09417911875581 4.229949723821846e-15
  endloop
endfacet
facet normal -5.27710849440258e-18 -5.27710849440258e-18 -1.0
  outer loop
    vertex 6.175713269617414 6.09417911875581 4.229949723821846e-15
    vertex 9.437722574073913 15.0 0.0
    vertex 6.481478029667859 5.670975502043067 4.229949723821846e-15
  endloop
endfacet
facet normal -5.27710849440258e-18 -5.27710849440258e-18 -1.0
  outer loop
    vertex 6.481478029667859 5.670975502043067 4.229949723821846e-15
    vertex 9.437722574073913 15.0 0.0
    vertex 6.6672909522081385 5.183054455659029 4.229949723821846e-15
  endloop
endfacet
facet normal -5.27710849440258e-18 -5.27710849440258e-18 -1.0
  outer loop
    vertex 6.6672909522081385 5.183054455659029 4.229949723821846e-15
    vertex 9.437722574073913 15.0 0.0
    vertex 6.7204891936375075 4.6636669925871175 4.229949723821846e-15
  endloop
endfacet
facet normal -5.27710849440258e-18 -5.27710849440258e-18 -1.0
  outer loop
    vertex 2.1837033605383875 0.010328457339261021 1.762479051592436e-16
    vertex 4.14820851010732 2.8051933054024856 4.229949723821846e-15
    vertex 15.0 0.0 0.0
  endloop
endfacet
facet normal -5.27710849440258e-18 -5.27710849440258e-18 -1.0
  outer loop
    vertex 4.14820851010732 2.8051933054024856 4.229949723821846e-15
    vertex 2.1837033605383875 0.010328457339261021 1.762479051592436e-16
    vertex 3.671806651965208 3.018816008423952 4.229949723821846e-15
  endloop
endfacet
facet normal -5.27710849440258e-18 -5.27710849440258e-18 -1.0
  outer loop
    vertex 3.671806651965208 3.018816008423952 4.229949723821846e-15
    vertex 2.1837033605383875 0.010328457339261021 1.762479051592436e-16
    vertex 3.266927417501877 3.3484615683634726 4.229949723821846e-15
  endloop
endfacet
facet normal -5.27710849440258e-18 -5.27710849440258e-18 -1.0
  outer loop
    vertex 3.266927417501877 3.3484615683634726 4.229949723821846e-15
    vertex 2.1837033605383875 0.010328457339261021 1.762479051592436e-16
    vertex 2.9611626574514314 3.7716651850762166 4.229949723821846e-15
  endloop
endfacet
facet normal -5.27710849440258e-18 -5.27710849440258e-18 -1.0
  outer loop
    vertex 2.9611626574514314 3.7716651850762166 4.229949723821846e-15
    vertex 2.1837033605383875 0.010328457339261021 1.762479051592436e-16
    vertex 2.7753497349111513 4.259586231460253 4.229949723821846e-15
  endloop
endfacet
facet normal -5.27710849440258e-18 -5.27710849440258e-18 -1.0
  outer loop
    vertex 2.7753497349111513 4.259586231460253 4.229949723821846e-15
    vertex 2.1837033605383875 0.010328457339261021 1.762479051592436e-16
    vertex 2.7221514934817836 4.778973694532165 4.229949723821846e-15
  endloop
endfacet
facet normal -5.27710849440258e-18 -5.27710849440258e-18 -1.0
  outer loop
    vertex 15.0 0.0 0.0
    vertex 4.14820851010732 2.8051933054024856 4.229949723821846e-15
    vertex 4.663666992587121 2.72215149348178 4.229949723821846e-15
  endloop
endfacet
facet normal -5.27710849440258e-18 -5.27710849440258e-18 -1.0
  outer loop
    vertex 15.0 0.0 0.0
    vertex 4.663666992587121 2.72215149348178 4.229949723821846e-15
    vertex 5.1830544556590326 2.775349734911148 4.229949723821846e-15
  endloop
endfacet
facet normal -5.27710849440258e-18 -5.27710849440258e-18 -1.0
  outer loop
    vertex 15.0 0.0 0.0
    vertex 5.1830544556590326 2.775349734911148 4.229949723821846e-15
    vertex 5.6709755020430705 2.961162657451428 4.229949723821846e-15
  endloop
endfacet
facet normal -5.27710849440258e-18 -5.27710849440258e-18 -1.0
  outer loop
    vertex 15.0 0.0 0.0
    vertex 5.6709755020430705 2.961162657451428 4.229949723821846e-15
    vertex 6.094179118755814 3.2669274175018734 4.229949723821846e-15
  endloop
endfacet
facet normal -5.27710849440258e-18 -5.27710849440258e-18 -1.0
  outer loop
    vertex 15.0 0.0 0.0
    vertex 6.094179118755814 3.2669274175018734 4.229949723821846e-15
    vertex 6.423824678695336 3.6718066519652046 4.229949723821846e-15
  endloop
endfacet
facet normal -5.27710849440258e-18 -5.27710849440258e-18 -1.0
  outer loop
    vertex 15.0 0.0 0.0
    vertex 6.423824678695336 3.6718066519652046 4.229949723821846e-15
    vertex 6.637447381716801 4.148208510107317 4.229949723821846e-15
  endloop
endfacet
facet normal -5.27710849440258e-18 -5.27710849440258e-18 -1.0
  outer loop
    vertex 15.0 0.0 0.0
    vertex 6.637447381716801 4.148208510107317 4.229949723821846e-15
    vertex 6.7204891936375075 4.6636669925871175 4.229949723821846e-15
  endloop
endfacet
facet normal -5.27710849440258e-18 -5.27710849440258e-18 -1.0
  outer loop
    vertex 15.0 0.0 0.0
    vertex 6.7204891936375075 4.6636669925871175 4.229949723821846e-15
    vertex 9.437722574073913 9.437722574073915 0.0
  endloop
endfacet
facet normal -5.27710849440258e-18 -5.27710849440258e-18 -1.0
  outer loop
    vertex 9.437722574073913 9.437722574073915 0.0
    vertex 6.7204891936375075 4.6636669925871175 4.229949723821846e-15
    vertex 9.437722574073913 15.0 0.0
  endloop
endfacet
facet normal -5.27710849440258e-18 -5.27710849440258e-18 -1.0
  outer loop
    vertex 15.0 0.0 0.0
    vertex 9.437722574073913 9.437722574073915 0.0
    vertex 15.0 9.437722574073913 0.0
  endloop
endfacet
facet normal 4.601973936743957e-32 4.1417765430695643e-32 1.0
  outer loop
    vertex 1.818897717710256 3.9624113233486944 2.6
    vertex 1.8282941069498626 5.515297165820497 2.6
    vertex 1.7213752625152992 4.739472773640444 2.6
  endloop
endfacet
facet normal 4.601973936743957e-32 4.1417765430695643e-32 1.0
  outer loop
    vertex 1.8282941069498626 5.515297165820497 2.6
    vertex 1.818897717710256 3.9624113233486944 2.6
    vertex 2.114215478376673 3.237068268627866 2.6
  endloop
endfacet
facet normal 4.601973936743957e-32 4.1417765430695643e-32 1.0
  outer loop
    vertex 1.8282941069498626 5.515297165820497 2.6
    vertex 2.114215478376673 3.237068268627866 2.6
    vertex 2.1323679084574767 6.237013349672212 2.6
  endloop
endfacet
facet normal 4.601973936743957e-32 4.1417765430695643e-32 1.0
  outer loop
    vertex 2.1323679084574767 6.237013349672212 2.6
    vertex 2.114215478376673 3.237068268627866 2.6
    vertex 2.587203127160811 2.6128745399711084 2.6
  endloop
endfacet
facet normal 4.601973936743957e-32 4.1417765430695643e-32 1.0
  outer loop
    vertex 2.1323679084574767 6.237013349672212 2.6
    vertex 2.587203127160811 2.6128745399711084 2.6
    vertex 2.6128745399711115 6.855437559958476 2.6
  endloop
endfacet
facet normal 4.601973936743957e-32 4.1417765430695643e-32 1.0
  outer loop
    vertex 2.6128745399711115 6.855437559958476 2.6
    vertex 2.587203127160811 2.6128745399711084 2.6
    vertex 2.7221514934817836 4.778973694532165 2.6
  endloop
endfacet
facet normal 4.601973936743957e-32 4.1417765430695643e-32 1.0
  outer loop
    vertex 2.7221514934817836 4.778973694532165 2.6
    vertex 2.587203127160811 2.6128745399711084 2.6
    vertex 2.7753497349111513 4.259586231460253 2.6
  endloop
endfacet
facet normal 4.601973936743957e-32 4.1417765430695643e-32 1.0
  outer loop
    vertex 2.7753497349111513 4.259586231460253 2.6
    vertex 2.587203127160811 2.6128745399711084 2.6
    vertex 3.2056273374470754 2.132367908457474 2.6
  endloop
endfacet
facet normal 4.601973936743957e-32 4.1417765430695643e-32 1.0
  outer loop
    vertex 2.7753497349111513 4.259586231460253 2.6
    vertex 3.2056273374470754 2.132367908457474 2.6
    vertex 2.9611626574514314 3.7716651850762166 2.6
  endloop
endfacet
facet normal 4.601973936743957e-32 4.1417765430695643e-32 1.0
  outer loop
    vertex 2.9611626574514314 3.7716651850762166 2.6
    vertex 3.2056273374470754 2.132367908457474 2.6
    vertex 3.266927417501877 3.3484615683634726 2.6
  endloop
endfacet
facet normal 4.601973936743957e-32 4.1417765430695643e-32 1.0
  outer loop
    vertex 3.266927417501877 3.3484615683634726 2.6
    vertex 3.2056273374470754 2.132367908457474 2.6
    vertex 3.9273435212987886 1.8282941069498602 2.6
  endloop
endfacet
facet normal 4.601973936743957e-32 4.1417765430695643e-32 1.0
  outer loop
    vertex 3.266927417501877 3.3484615683634726 2.6
    vertex 3.9273435212987886 1.8282941069498602 2.6
    vertex 3.671806651965208 3.018816008423952 2.6
  endloop
endfacet
facet normal 4.601973936743957e-32 4.1417765430695643e-32 1.0
  outer loop
    vertex 3.671806651965208 3.018816008423952 2.6
    vertex 3.9273435212987886 1.8282941069498602 2.6
    vertex 4.14820851010732 2.8051933054024856 2.6
  endloop
endfacet
facet normal 4.601973936743957e-32 4.1417765430695643e-32 1.0
  outer loop
    vertex 4.14820851010732 2.8051933054024856 2.6
    vertex 3.9273435212987886 1.8282941069498602 2.6
    vertex 4.703167913478842 1.7213752625152958 2.6
  endloop
endfacet
facet normal 4.601973936743957e-32 4.1417765430695643e-32 1.0
  outer loop
    vertex 4.14820851010732 2.8051933054024856 2.6
    vertex 4.703167913478842 1.7213752625152958 2.6
    vertex 4.663666992587121 2.72215149348178 2.6
  endloop
endfacet
facet normal 4.601973936743957e-32 4.1417765430695643e-32 1.0
  outer loop
    vertex 4.663666992587121 2.72215149348178 2.6
    vertex 4.703167913478842 1.7213752625152958 2.6
    vertex 5.1830544556590326 2.775349734911148 2.6
  endloop
endfacet
facet normal 4.601973936743957e-32 4.1417765430695643e-32 1.0
  outer loop
    vertex 5.1830544556590326 2.775349734911148 2.6
    vertex 4.703167913478842 1.7213752625152958 2.6
    vertex 5.480229363770592 1.818897717710252 2.6
  endloop
endfacet
facet normal 4.601973936743957e-32 4.1417765430695643e-32 1.0
  outer loop
    vertex 5.1830544556590326 2.775349734911148 2.6
    vertex 5.480229363770592 1.818897717710252 2.6
    vertex 5.6709755020430705 2.961162657451428 2.6
  endloop
endfacet
facet normal 4.601973936743957e-32 4.1417765430695643e-32 1.0
  outer loop
    vertex 5.6709755020430705 2.961162657451428 2.6
    vertex 5.480229363770592 1.818897717710252 2.6
    vertex 6.205572418491421 2.1142154783766696 2.6
  endloop
endfacet
facet normal 4.601973936743957e-32 4.1417765430695643e-32 1.0
  outer loop
    vertex 5.6709755020430705 2.961162657451428 2.6
    vertex 6.205572418491421 2.1142154783766696 2.6
    vertex 6.094179118755814 3.2669274175018734 2.6
  endloop
endfacet
facet normal 4.601973936743957e-32 4.1417765430695643e-32 1.0
  outer loop
    vertex 6.094179118755814 3.2669274175018734 2.6
    vertex 6.205572418491421 2.1142154783766696 2.6
    vertex 6.423824678695336 3.6718066519652046 2.6
  endloop
endfacet
facet normal 4.601973936743957e-32 4.1417765430695643e-32 1.0
  outer loop
    vertex 6.423824678695336 3.6718066519652046 2.6
    vertex 6.205572418491421 2.1142154783766696 2.6
    vertex 6.829766147148177 2.587203127160807 2.6
  endloop
endfacet
facet normal 4.601973936743957e-32 4.1417765430695643e-32 1.0
  outer loop
    vertex 6.423824678695336 3.6718066519652046 2.6
    vertex 6.829766147148177 2.587203127160807 2.6
    vertex 6.637447381716801 4.148208510107317 2.6
  endloop
endfacet
facet normal 4.601973936743957e-32 4.1417765430695643e-32 1.0
  outer loop
    vertex 6.637447381716801 4.148208510107317 2.6
    vertex 6.829766147148177 2.587203127160807 2.6
    vertex 6.7204891936375075 4.6636669925871175 2.6
  endloop
endfacet
facet normal 4.601973936743957e-32 4.1417765430695643e-32 1.0
  outer loop
    vertex 2.6128745399711115 6.855437559958476 2.6
    vertex 2.805193305402489 5.2944321770119664 2.6
    vertex 3.2370682686278673 7.328425208742613 2.6
  endloop
endfacet
facet normal 4.601973936743957e-32 4.1417765430695643e-32 1.0
  outer loop
    vertex 2.805193305402489 5.2944321770119664 2.6
    vertex 2.6128745399711115 6.855437559958476 2.6
    vertex 2.7221514934817836 4.778973694532165 2.6
  endloop
endfacet
facet normal 4.601973936743957e-32 4.1417765430695643e-32 1.0
  outer loop
    vertex 3.2370682686278673 7.328425208742613 2.6
    vertex 2.805193305402489 5.2944321770119664 2.6
    vertex 3.018816008423955 5.770834035154079 2.6
  endloop
endfacet
facet normal 4.601973936743957e-32 4.1417765430695643e-32 1.0
  outer loop
    vertex 3.2370682686278673 7.328425208742613 2.6
    vertex 3.018816008423955 5.770834035154079 2.6
    vertex 3.348461568363476 6.175713269617409 2.6
  endloop
endfacet
facet normal 4.601973936743957e-32 4.1417765430695643e-32 1.0
  outer loop
    vertex 3.2370682686278673 7.328425208742613 2.6
    vertex 3.348461568363476 6.175713269617409 2.6
    vertex 3.962411323348698 7.62374296940903 2.6
  endloop
endfacet
facet normal 4.601973936743957e-32 4.1417765430695643e-32 1.0
  outer loop
    vertex 3.962411323348698 7.62374296940903 2.6
    vertex 3.348461568363476 6.175713269617409 2.6
    vertex 3.7716651850762197 6.481478029667855 2.6
  endloop
endfacet
facet normal 4.601973936743957e-32 4.1417765430695643e-32 1.0
  outer loop
    vertex 3.962411323348698 7.62374296940903 2.6
    vertex 3.7716651850762197 6.481478029667855 2.6
    vertex 4.259586231460258 6.667290952208136 2.6
  endloop
endfacet
facet normal 4.601973936743957e-32 4.1417765430695643e-32 1.0
  outer loop
    vertex 3.962411323348698 7.62374296940903 2.6
    vertex 4.259586231460258 6.667290952208136 2.6
    vertex 4.739472773640447 7.721265424603987 2.6
  endloop
endfacet
facet normal 4.601973936743957e-32 4.1417765430695643e-32 1.0
  outer loop
    vertex 4.739472773640447 7.721265424603987 2.6
    vertex 4.259586231460258 6.667290952208136 2.6
    vertex 4.778973694532168 6.720489193637503 2.6
  endloop
endfacet
facet normal 4.601973936743957e-32 4.1417765430695643e-32 1.0
  outer loop
    vertex 4.739472773640447 7.721265424603987 2.6
    vertex 4.778973694532168 6.720489193637503 2.6
    vertex 5.5152971658205 7.614346580169425 2.6
  endloop
endfacet
facet normal 4.601973936743957e-32 4.1417765430695643e-32 1.0
  outer loop
    vertex 5.5152971658205 7.614346580169425 2.6
    vertex 4.778973694532168 6.720489193637503 2.6
    vertex 5.29443217701197 6.6374473817167985 2.6
  endloop
endfacet
facet normal 4.601973936743957e-32 4.1417765430695643e-32 1.0
  outer loop
    vertex 5.5152971658205 7.614346580169425 2.6
    vertex 5.29443217701197 6.6374473817167985 2.6
    vertex 5.770834035154082 6.423824678695332 2.6
  endloop
endfacet
facet normal 4.601973936743957e-32 4.1417765430695643e-32 1.0
  outer loop
    vertex 5.5152971658205 7.614346580169425 2.6
    vertex 5.770834035154082 6.423824678695332 2.6
    vertex 6.237013349672216 7.310272778661809 2.6
  endloop
endfacet
facet normal 4.601973936743957e-32 4.1417765430695643e-32 1.0
  outer loop
    vertex 6.237013349672216 7.310272778661809 2.6
    vertex 5.770834035154082 6.423824678695332 2.6
    vertex 6.175713269617414 6.09417911875581 2.6
  endloop
endfacet
facet normal 4.601973936743957e-32 4.1417765430695643e-32 1.0
  outer loop
    vertex 6.237013349672216 7.310272778661809 2.6
    vertex 6.175713269617414 6.09417911875581 2.6
    vertex 6.481478029667859 5.670975502043067 2.6
  endloop
endfacet
facet normal 4.601973936743957e-32 4.1417765430695643e-32 1.0
  outer loop
    vertex 6.237013349672216 7.310272778661809 2.6
    vertex 6.481478029667859 5.670975502043067 2.6
    vertex 6.85543755995848 6.829766147148173 2.6
  endloop
endfacet
facet normal 4.601973936743957e-32 4.1417765430695643e-32 1.0
  outer loop
    vertex 6.85543755995848 6.829766147148173 2.6
    vertex 6.481478029667859 5.670975502043067 2.6
    vertex 6.6672909522081385 5.183054455659029 2.6
  endloop
endfacet
facet normal 4.601973936743957e-32 4.1417765430695643e-32 1.0
  outer loop
    vertex 6.85543755995848 6.829766147148173 2.6
    vertex 6.6672909522081385 5.183054455659029 2.6
    vertex 6.7204891936375075 4.6636669925871175 2.6
  endloop
endfacet
facet normal 4.601973936743957e-32 4.1417765430695643e-32 1.0
  outer loop
    vertex 6.85543755995848 6.829766147148173 2.6
    vertex 6.7204891936375075 4.6636669925871175 2.6
    vertex 6.829766147148177 2.587203127160807 2.6
  endloop
endfacet
facet normal 4.601973936743957e-32 4.1417765430695643e-32 1.0
  outer loop
    vertex 6.85543755995848 6.829766147148173 2.6
    vertex 6.829766147148177 2.587203127160807 2.6
    vertex 7.310272778661814 3.2056273374470714 2.6
  endloop
endfacet
facet normal 4.601973936743957e-32 4.1417765430695643e-32 1.0
  outer loop
    vertex 6.85543755995848 6.829766147148173 2.6
    vertex 7.310272778661814 3.2056273374470714 2.6
    vertex 7.328425208742618 6.205572418491418 2.6
  endloop
endfacet
facet normal 4.601973936743957e-32 4.1417765430695643e-32 1.0
  outer loop
    vertex 7.328425208742618 6.205572418491418 2.6
    vertex 7.310272778661814 3.2056273374470714 2.6
    vertex 7.6143465801694274 3.9273435212987846 2.6
  endloop
endfacet
facet normal 4.601973936743957e-32 4.1417765430695643e-32 1.0
  outer loop
    vertex 7.328425208742618 6.205572418491418 2.6
    vertex 7.6143465801694274 3.9273435212987846 2.6
    vertex 7.623742969409035 5.4802293637705874 2.6
  endloop
endfacet
facet normal 4.601973936743957e-32 4.1417765430695643e-32 1.0
  outer loop
    vertex 7.623742969409035 5.4802293637705874 2.6
    vertex 7.6143465801694274 3.9273435212987846 2.6
    vertex 7.721265424603991 4.703167913478837 2.6
  endloop
endfacet
facet normal -0.585638703715042 0.8105722106703173 1.1204702421771691e-32
  outer loop
    vertex 5.6709755020430705 2.961162657451428 2.6
    vertex 6.094179118755814 3.2669274175018734 4.229949723821846e-15
    vertex 5.6709755020430705 2.961162657451428 4.229949723821846e-15
  endloop
endfacet
facet normal -0.585638703715042 0.8105722106703173 1.1204702421771691e-32
  outer loop
    vertex 6.094179118755814 3.2669274175018734 4.229949723821846e-15
    vertex 5.6709755020430705 2.961162657451428 2.6
    vertex 6.094179118755814 3.2669274175018734 2.6
  endloop
endfacet
facet normal -0.8506508083520403 -0.5257311121191329 -0.0
  outer loop
    vertex 0.2684847821944409 1.4092343859728471 3.0
    vertex 0.48372053352621497 1.0609756247239157 1.762479051592436e-16
    vertex 0.48372053352621497 1.0609756247239157 3.0
  endloop
endfacet
facet normal -0.8506508083520403 -0.5257311121191329 -0.0
  outer loop
    vertex 0.48372053352621497 1.0609756247239157 1.762479051592436e-16
    vertex 0.2684847821944409 1.4092343859728471 3.0
    vertex 0.2684847821944409 1.4092343859728471 1.762479051592436e-16
  endloop
endfacet
facet normal -0.921440178465665 -0.38852026653594746 -0.0
  outer loop
    vertex 0.10942352531273616 1.7864745084375788 3.0
    vertex 0.2684847821944409 1.4092343859728471 1.762479051592436e-16
    vertex 0.2684847821944409 1.4092343859728471 3.0
  endloop
endfacet
facet normal -0.921440178465665 -0.38852026653594746 -0.0
  outer loop
    vertex 0.2684847821944409 1.4092343859728471 1.762479051592436e-16
    vertex 0.10942352531273616 1.7864745084375788 3.0
    vertex 0.10942352531273616 1.7864745084375788 1.762479051592436e-16
  endloop
endfacet
facet normal -0.9702643026941005 -0.24204789385064088 -1.6708471484166266e-33
  outer loop
    vertex 0.010328457339261021 2.183703360538387 3.0
    vertex 0.10942352531273616 1.7864745084375788 1.762479051592436e-16
    vertex 0.10942352531273616 1.7864745084375788 3.0
  endloop
endfacet
facet normal -0.9702643026941005 -0.24204789385064088 -1.6708471484166266e-33
  outer loop
    vertex 0.10942352531273616 1.7864745084375788 1.762479051592436e-16
    vertex 0.010328457339261021 2.183703360538387 3.0
    vertex 0.010328457339261021 2.183703360538387 1.762479051592436e-16
  endloop
endfacet
facet normal -0.7754750743451416 0.6313781822880778 2.8564962000817543e-32
  outer loop
    vertex 6.423824678695336 3.6718066519652046 2.6
    vertex 6.094179118755814 3.2669274175018734 4.229949723821846e-15
    vertex 6.094179118755814 3.2669274175018734 2.6
  endloop
endfacet
facet normal -0.7754750743451416 0.6313781822880778 2.8564962000817543e-32
  outer loop
    vertex 6.094179118755814 3.2669274175018734 4.229949723821846e-15
    vertex 6.423824678695336 3.6718066519652046 2.6
    vertex 6.423824678695336 3.6718066519652046 4.229949723821846e-15
  endloop
endfacet
facet normal 0.6039498544817428 -0.7970223166709208 5.217268460652965e-33
  outer loop
    vertex 3.2370682686278673 7.328425208742613 3.0
    vertex 2.6128745399711115 6.855437559958476 2.6
    vertex 3.2370682686278673 7.328425208742613 2.6
  endloop
endfacet
facet normal 0.6039498544817428 -0.7970223166709208 5.217268460652965e-33
  outer loop
    vertex 2.6128745399711115 6.855437559958476 2.6
    vertex 3.2370682686278673 7.328425208742613 3.0
    vertex 2.6128745399711115 6.855437559958476 3.0
  endloop
endfacet
facet normal 0.9906369224756891 -0.13652284727435 -3.993438171575394e-32
  outer loop
    vertex 1.8282941069498626 5.515297165820497 2.6
    vertex 1.7213752625152992 4.739472773640444 3.0
    vertex 1.7213752625152992 4.739472773640444 2.6
  endloop
endfacet
facet normal 0.9906369224756891 -0.13652284727435 -3.993438171575394e-32
  outer loop
    vertex 1.7213752625152992 4.739472773640444 3.0
    vertex 1.8282941069498626 5.515297165820497 2.6
    vertex 1.8282941069498626 5.515297165820497 3.0
  endloop
endfacet
facet normal 0.9922165008610144 0.12452475825764477 -5.081908199352597e-32
  outer loop
    vertex 1.7213752625152992 4.739472773640444 2.6
    vertex 1.818897717710256 3.9624113233486944 3.0
    vertex 1.818897717710256 3.9624113233486944 2.6
  endloop
endfacet
facet normal 0.9922165008610144 0.12452475825764477 -5.081908199352597e-32
  outer loop
    vertex 1.818897717710256 3.9624113233486944 3.0
    vertex 1.7213752625152992 4.739472773640444 2.6
    vertex 1.7213752625152992 4.739472773640444 3.0
  endloop
endfacet
facet normal 0.7970223166709207 0.6039498544817431 -6.169301268805627e-32
  outer loop
    vertex 2.114215478376673 3.237068268627866 2.6
    vertex 2.587203127160811 2.6128745399711084 3.0
    vertex 2.587203127160811 2.6128745399711084 2.6
  endloop
endfacet
facet normal 0.7970223166709207 0.6039498544817431 -6.169301268805627e-32
  outer loop
    vertex 2.587203127160811 2.6128745399711084 3.0
    vertex 2.114215478376673 3.237068268627866 2.6
    vertex 2.114215478376673 3.237068268627866 3.0
  endloop
endfacet
facet normal 0.6135507151744154 0.7896553171536069 -6.094120269800241e-32
  outer loop
    vertex 2.587203127160811 2.6128745399711084 3.0
    vertex 3.2056273374470754 2.132367908457474 2.6
    vertex 2.587203127160811 2.6128745399711084 2.6
  endloop
endfacet
facet normal 0.6135507151744154 0.7896553171536069 -6.094120269800241e-32
  outer loop
    vertex 3.2056273374470754 2.132367908457474 2.6
    vertex 2.587203127160811 2.6128745399711084 3.0
    vertex 3.2056273374470754 2.132367908457474 3.0
  endloop
endfacet
facet normal 0.3882666463792715 0.9215470749285647 -5.603635045417889e-32
  outer loop
    vertex 3.2056273374470754 2.132367908457474 3.0
    vertex 3.9273435212987886 1.8282941069498602 2.6
    vertex 3.2056273374470754 2.132367908457474 2.6
  endloop
endfacet
facet normal 0.3882666463792715 0.9215470749285647 -5.603635045417889e-32
  outer loop
    vertex 3.9273435212987886 1.8282941069498602 2.6
    vertex 3.2056273374470754 2.132367908457474 3.0
    vertex 3.9273435212987886 1.8282941069498602 3.0
  endloop
endfacet
facet normal 0.9261781644279578 0.3770862073012735 -5.824054581594302e-32
  outer loop
    vertex 1.818897717710256 3.9624113233486944 2.6
    vertex 2.114215478376673 3.237068268627866 3.0
    vertex 2.114215478376673 3.237068268627866 2.6
  endloop
endfacet
facet normal 0.9261781644279578 0.3770862073012735 -5.824054581594302e-32
  outer loop
    vertex 2.114215478376673 3.237068268627866 3.0
    vertex 1.818897717710256 3.9624113233486944 2.6
    vertex 1.818897717710256 3.9624113233486944 3.0
  endloop
endfacet
facet normal 0.7896553171536066 -0.6135507151744157 -1.0927832284592303e-32
  outer loop
    vertex 2.6128745399711115 6.855437559958476 2.6
    vertex 2.1323679084574767 6.237013349672212 3.0
    vertex 2.1323679084574767 6.237013349672212 2.6
  endloop
endfacet
facet normal 0.7896553171536066 -0.6135507151744157 -1.0927832284592303e-32
  outer loop
    vertex 2.1323679084574767 6.237013349672212 3.0
    vertex 2.6128745399711115 6.855437559958476 2.6
    vertex 2.6128745399711115 6.855437559958476 3.0
  endloop
endfacet
facet normal 0.9215470749285649 -0.3882666463792713 -2.632821931873935e-32
  outer loop
    vertex 2.1323679084574767 6.237013349672212 2.6
    vertex 1.8282941069498626 5.515297165820497 3.0
    vertex 1.8282941069498626 5.515297165820497 2.6
  endloop
endfacet
facet normal 0.9215470749285649 -0.3882666463792713 -2.632821931873935e-32
  outer loop
    vertex 1.8282941069498626 5.515297165820497 3.0
    vertex 2.1323679084574767 6.237013349672212 2.6
    vertex 2.1323679084574767 6.237013349672212 3.0
  endloop
endfacet
endsolid Fermo Vetro 3d
