solid Ferma Cavi
facet normal 0.0 1.0 0.0
  outer loop
    vertex -7.049916206369744e-16 -3.9999999999999996 10.0
    vertex 15.0 -3.9999999999999996 0.0
    vertex -7.049916206369744e-16 -3.9999999999999996 0.0
  endloop
endfacet
facet normal 0.0 1.0 0.0
  outer loop
    vertex 15.0 -3.9999999999999996 0.0
    vertex -7.049916206369744e-16 -3.9999999999999996 10.0
    vertex 10.5 -3.999999999999998 3.2679491924311224
  endloop
endfacet
facet normal 0.0 1.0 0.0
  outer loop
    vertex 15.0 -3.9999999999999996 0.0
    vertex 10.5 -3.999999999999998 3.2679491924311224
    vertex 10.982361909794959 -3.999999999999998 3.068148347421863
  endloop
endfacet
facet normal 0.0 1.0 0.0
  outer loop
    vertex 15.0 -3.9999999999999996 0.0
    vertex 10.982361909794959 -3.999999999999998 3.068148347421863
    vertex 11.500000000000002 -3.999999999999998 2.9999999999999996
  endloop
endfacet
facet normal 0.0 1.0 0.0
  outer loop
    vertex 10.5 -3.999999999999998 3.2679491924311224
    vertex -7.049916206369744e-16 -3.9999999999999996 10.0
    vertex 10.085786437626906 -3.999999999999998 3.585786437626904
  endloop
endfacet
facet normal 0.0 1.0 0.0
  outer loop
    vertex 10.085786437626906 -3.999999999999998 3.585786437626904
    vertex -7.049916206369744e-16 -3.9999999999999996 10.0
    vertex 9.767949192431123 -3.999999999999998 3.999999999999999
  endloop
endfacet
facet normal 0.0 1.0 0.0
  outer loop
    vertex 9.767949192431123 -3.999999999999998 3.999999999999999
    vertex -7.049916206369744e-16 -3.9999999999999996 10.0
    vertex 9.568148347421863 -3.999999999999998 4.482361909794958
  endloop
endfacet
facet normal 0.0 1.0 0.0
  outer loop
    vertex 9.568148347421863 -3.999999999999998 4.482361909794958
    vertex -7.049916206369744e-16 -3.9999999999999996 10.0
    vertex 9.5 -3.999999999999998 5.0
  endloop
endfacet
facet normal 0.0 1.0 0.0
  outer loop
    vertex 9.5 -3.999999999999998 5.0
    vertex -7.049916206369744e-16 -3.9999999999999996 10.0
    vertex 9.568148347421863 -3.999999999999998 5.517638090205041
  endloop
endfacet
facet normal 0.0 1.0 0.0
  outer loop
    vertex 9.568148347421863 -3.999999999999998 5.517638090205041
    vertex -7.049916206369744e-16 -3.9999999999999996 10.0
    vertex 9.767949192431123 -3.999999999999998 6.0
  endloop
endfacet
facet normal 0.0 1.0 0.0
  outer loop
    vertex 9.767949192431123 -3.999999999999998 6.0
    vertex -7.049916206369744e-16 -3.9999999999999996 10.0
    vertex 10.085786437626906 -3.999999999999998 6.414213562373095
  endloop
endfacet
facet normal 0.0 1.0 0.0
  outer loop
    vertex 10.085786437626906 -3.999999999999998 6.414213562373095
    vertex -7.049916206369744e-16 -3.9999999999999996 10.0
    vertex 10.5 -3.999999999999998 6.732050807568878
  endloop
endfacet
facet normal 0.0 1.0 0.0
  outer loop
    vertex 10.5 -3.999999999999998 6.732050807568878
    vertex -7.049916206369744e-16 -3.9999999999999996 10.0
    vertex 10.982361909794959 -3.999999999999998 6.931851652578136
  endloop
endfacet
facet normal 0.0 1.0 0.0
  outer loop
    vertex 10.982361909794959 -3.999999999999998 6.931851652578136
    vertex -7.049916206369744e-16 -3.9999999999999996 10.0
    vertex 11.500000000000002 -3.999999999999998 7.000000000000001
  endloop
endfacet
facet normal 0.0 1.0 0.0
  outer loop
    vertex 15.0 -3.9999999999999996 0.0
    vertex 13.431851652578137 -3.999999999999998 4.482361909794958
    vertex 15.0 -3.9999999999999996 10.0
  endloop
endfacet
facet normal 0.0 1.0 0.0
  outer loop
    vertex 13.431851652578137 -3.999999999999998 4.482361909794958
    vertex 15.0 -3.9999999999999996 0.0
    vertex 13.232050807568877 -3.999999999999998 3.9999999999999996
  endloop
endfacet
facet normal 0.0 1.0 0.0
  outer loop
    vertex 13.232050807568877 -3.999999999999998 3.9999999999999996
    vertex 15.0 -3.9999999999999996 0.0
    vertex 12.914213562373094 -3.999999999999998 3.585786437626905
  endloop
endfacet
facet normal 0.0 1.0 0.0
  outer loop
    vertex 12.914213562373094 -3.999999999999998 3.585786437626905
    vertex 15.0 -3.9999999999999996 0.0
    vertex 12.500000000000002 -3.999999999999998 3.2679491924311224
  endloop
endfacet
facet normal 0.0 1.0 0.0
  outer loop
    vertex 12.500000000000002 -3.999999999999998 3.2679491924311224
    vertex 15.0 -3.9999999999999996 0.0
    vertex 12.017638090205045 -3.999999999999998 3.068148347421863
  endloop
endfacet
facet normal 0.0 1.0 0.0
  outer loop
    vertex 12.017638090205045 -3.999999999999998 3.068148347421863
    vertex 15.0 -3.9999999999999996 0.0
    vertex 11.500000000000002 -3.999999999999998 2.9999999999999996
  endloop
endfacet
facet normal 0.0 1.0 0.0
  outer loop
    vertex 15.0 -3.9999999999999996 10.0
    vertex 13.431851652578137 -3.999999999999998 4.482361909794958
    vertex 13.5 -3.999999999999998 5.0
  endloop
endfacet
facet normal 0.0 1.0 0.0
  outer loop
    vertex 15.0 -3.9999999999999996 10.0
    vertex 13.5 -3.999999999999998 5.0
    vertex 13.431851652578137 -3.999999999999998 5.517638090205043
  endloop
endfacet
facet normal 0.0 1.0 0.0
  outer loop
    vertex 15.0 -3.9999999999999996 10.0
    vertex 13.431851652578137 -3.999999999999998 5.517638090205043
    vertex 13.232050807568877 -3.999999999999998 6.000000000000001
  endloop
endfacet
facet normal 0.0 1.0 0.0
  outer loop
    vertex 15.0 -3.9999999999999996 10.0
    vertex 13.232050807568877 -3.999999999999998 6.000000000000001
    vertex 12.914213562373094 -3.999999999999998 6.414213562373095
  endloop
endfacet
facet normal 0.0 1.0 0.0
  outer loop
    vertex 15.0 -3.9999999999999996 10.0
    vertex 12.914213562373094 -3.999999999999998 6.414213562373095
    vertex 12.5 -3.999999999999998 6.732050807568879
  endloop
endfacet
facet normal 0.0 1.0 0.0
  outer loop
    vertex 15.0 -3.9999999999999996 10.0
    vertex 12.5 -3.999999999999998 6.732050807568879
    vertex 12.017638090205041 -3.999999999999998 6.931851652578138
  endloop
endfacet
facet normal 0.0 1.0 0.0
  outer loop
    vertex 15.0 -3.9999999999999996 10.0
    vertex 12.017638090205041 -3.999999999999998 6.931851652578138
    vertex 11.500000000000002 -3.999999999999998 7.000000000000001
  endloop
endfacet
facet normal 0.0 1.0 0.0
  outer loop
    vertex 15.0 -3.9999999999999996 10.0
    vertex 11.500000000000002 -3.999999999999998 7.000000000000001
    vertex -7.049916206369744e-16 -3.9999999999999996 10.0
  endloop
endfacet
facet normal 0.38268343236508895 0.0 -0.9238795325112871
  outer loop
    vertex 10.982361909794959 -3.999999999999998 6.931851652578136
    vertex 10.5 -4.9920599999999995 6.732050807568878
    vertex 10.5 -3.999999999999998 6.732050807568878
  endloop
endfacet
facet normal 0.38268343236508895 0.0 -0.9238795325112871
  outer loop
    vertex 10.5 -4.9920599999999995 6.732050807568878
    vertex 10.982361909794959 -3.999999999999998 6.931851652578136
    vertex 10.982361909794959 -4.9920599999999995 6.931851652578136
  endloop
endfacet
facet normal 0.3826834323650902 0.0 0.9238795325112867
  outer loop
    vertex 10.982361909794959 -4.9920599999999995 3.068148347421863
    vertex 10.5 -3.999999999999998 3.2679491924311224
    vertex 10.5 -4.9920599999999995 3.2679491924311224
  endloop
endfacet
facet normal 0.3826834323650902 0.0 0.9238795325112867
  outer loop
    vertex 10.5 -3.999999999999998 3.2679491924311224
    vertex 10.982361909794959 -4.9920599999999995 3.068148347421863
    vertex 10.982361909794959 -3.999999999999998 3.068148347421863
  endloop
endfacet
facet normal -0.8214999368533772 0.5702086054681194 0.0
  outer loop
    vertex -3.7002236648466567 3.3627882523448855 10.0
    vertex -4.444495245275249 2.2905156656800445 0.0
    vertex -4.444495245275249 2.2905156656800445 10.0
  endloop
endfacet
facet normal -0.8214999368533772 0.5702086054681194 0.0
  outer loop
    vertex -4.444495245275249 2.2905156656800445 0.0
    vertex -3.7002236648466567 3.3627882523448855 10.0
    vertex -3.7002236648466567 3.3627882523448855 0.0
  endloop
endfacet
facet normal -0.608761429008723 -0.0 -0.7933533402912333
  outer loop
    vertex 12.914213562373094 -3.999999999999998 6.414213562373095
    vertex 12.5 -4.9920599999999995 6.732050807568879
    vertex 12.5 -3.999999999999998 6.732050807568879
  endloop
endfacet
facet normal -0.608761429008723 -0.0 -0.7933533402912333
  outer loop
    vertex 12.5 -4.9920599999999995 6.732050807568879
    vertex 12.914213562373094 -3.999999999999998 6.414213562373095
    vertex 12.914213562373094 -4.9920599999999995 6.414213562373095
  endloop
endfacet
facet normal -0.13052619222005143 0.0 0.9914448613738105
  outer loop
    vertex 12.017638090205045 -4.9920599999999995 3.068148347421863
    vertex 11.500000000000002 -3.999999999999998 2.9999999999999996
    vertex 11.500000000000002 -4.9920599999999995 2.9999999999999996
  endloop
endfacet
facet normal -0.13052619222005143 0.0 0.9914448613738105
  outer loop
    vertex 11.500000000000002 -3.999999999999998 2.9999999999999996
    vertex 12.017638090205045 -4.9920599999999995 3.068148347421863
    vertex 12.017638090205045 -3.999999999999998 3.068148347421863
  endloop
endfacet
facet normal 0.0 0.0 -1.0
  outer loop
    vertex -4.885881819614004 1.0621482216552183 0.0
    vertex -4.7623718865018745 -1.5230935672691173 0.0
    vertex -4.994303622247537 -0.2386028683924801 0.0
  endloop
endfacet
facet normal 0.0 0.0 -1.0
  outer loop
    vertex -4.7623718865018745 -1.5230935672691173 0.0
    vertex -4.885881819614004 1.0621482216552183 0.0
    vertex -4.444495245275249 2.2905156656800445 0.0
  endloop
endfacet
facet normal 0.0 0.0 -1.0
  outer loop
    vertex -4.7623718865018745 -1.5230935672691173 0.0
    vertex -4.444495245275249 2.2905156656800445 0.0
    vertex -4.205892376882767 -2.703787956567493 0.0
  endloop
endfacet
facet normal 0.0 0.0 -1.0
  outer loop
    vertex -4.205892376882767 -2.703787956567493 0.0
    vertex -4.444495245275249 2.2905156656800445 0.0
    vertex -3.999999999999999 7.049916206369744e-16 0.0
  endloop
endfacet
facet normal 0.0 0.0 -1.0
  outer loop
    vertex -3.999999999999999 7.049916206369744e-16 0.0
    vertex -4.444495245275249 2.2905156656800445 0.0
    vertex -3.7002236648466567 3.3627882523448855 0.0
  endloop
endfacet
facet normal 0.0 0.0 -1.0
  outer loop
    vertex -3.999999999999999 7.049916206369744e-16 0.0
    vertex -3.7002236648466567 3.3627882523448855 0.0
    vertex -3.863703305156272 1.035276180410084 0.0
  endloop
endfacet
facet normal 0.0 0.0 -1.0
  outer loop
    vertex -3.863703305156272 1.035276180410084 0.0
    vertex -3.7002236648466567 3.3627882523448855 0.0
    vertex -3.464101615137753 2.0000000000000013 0.0
  endloop
endfacet
facet normal 0.0 0.0 -1.0
  outer loop
    vertex -3.464101615137753 2.0000000000000013 0.0
    vertex -3.7002236648466567 3.3627882523448855 0.0
    vertex -2.703787956567494 4.205892376882767 0.0
  endloop
endfacet
facet normal 0.0 0.0 -1.0
  outer loop
    vertex -3.464101615137753 2.0000000000000013 0.0
    vertex -2.703787956567494 4.205892376882767 0.0
    vertex -2.8284271247461894 2.8284271247461894 0.0
  endloop
endfacet
facet normal 0.0 0.0 -1.0
  outer loop
    vertex -2.8284271247461894 2.8284271247461894 0.0
    vertex -2.703787956567494 4.205892376882767 0.0
    vertex -1.9999999999999984 3.4641016151377544 0.0
  endloop
endfacet
facet normal 0.0 0.0 -1.0
  outer loop
    vertex -1.9999999999999984 3.4641016151377544 0.0
    vertex -2.703787956567494 4.205892376882767 0.0
    vertex -1.523093567269118 4.762371886501875 0.0
  endloop
endfacet
facet normal 0.0 0.0 -1.0
  outer loop
    vertex -1.9999999999999984 3.4641016151377544 0.0
    vertex -1.523093567269118 4.762371886501875 0.0
    vertex -1.0352761804100818 3.863703305156272 0.0
  endloop
endfacet
facet normal 0.0 0.0 -1.0
  outer loop
    vertex -1.0352761804100818 3.863703305156272 0.0
    vertex -1.523093567269118 4.762371886501875 0.0
    vertex -0.2386028683924822 4.994303622247537 0.0
  endloop
endfacet
facet normal 0.0 0.0 -1.0
  outer loop
    vertex -1.0352761804100818 3.863703305156272 0.0
    vertex -0.2386028683924822 4.994303622247537 0.0
    vertex 0.0 3.999999999999999 0.0
  endloop
endfacet
facet normal 0.0 0.0 -1.0
  outer loop
    vertex 0.0 3.999999999999999 0.0
    vertex -0.2386028683924822 4.994303622247537 0.0
    vertex 1.0621482216552174 4.8858818196140055 0.0
  endloop
endfacet
facet normal 0.0 0.0 -1.0
  outer loop
    vertex 0.0 3.999999999999999 0.0
    vertex 1.0621482216552174 4.8858818196140055 0.0
    vertex 1.0352761804100834 3.863703305156272 0.0
  endloop
endfacet
facet normal 0.0 0.0 -1.0
  outer loop
    vertex 1.0352761804100834 3.863703305156272 0.0
    vertex 1.0621482216552174 4.8858818196140055 0.0
    vertex 1.9999999999999998 3.4641016151377544 0.0
  endloop
endfacet
facet normal 0.0 0.0 -1.0
  outer loop
    vertex 1.9999999999999998 3.4641016151377544 0.0
    vertex 1.0621482216552174 4.8858818196140055 0.0
    vertex 2.2905156656800445 4.44449524527525 0.0
  endloop
endfacet
facet normal 0.0 0.0 -1.0
  outer loop
    vertex 1.9999999999999998 3.4641016151377544 0.0
    vertex 2.2905156656800445 4.44449524527525 0.0
    vertex 2.8284271247461894 2.8284271247461894 0.0
  endloop
endfacet
facet normal 0.0 0.0 -1.0
  outer loop
    vertex 2.8284271247461894 2.8284271247461894 0.0
    vertex 2.2905156656800445 4.44449524527525 0.0
    vertex 3.3627882523448855 3.7002236648466567 0.0
  endloop
endfacet
facet normal 0.0 0.0 -1.0
  outer loop
    vertex 2.8284271247461894 2.8284271247461894 0.0
    vertex 3.3627882523448855 3.7002236648466567 0.0
    vertex 3.464101615137753 1.9999999999999998 0.0
  endloop
endfacet
facet normal 0.0 0.0 -1.0
  outer loop
    vertex 3.464101615137753 1.9999999999999998 0.0
    vertex 3.3627882523448855 3.7002236648466567 0.0
    vertex 4.205892376882767 2.7037879565674934 0.0
  endloop
endfacet
facet normal 0.0 0.0 -1.0
  outer loop
    vertex 3.464101615137753 1.9999999999999998 0.0
    vertex 4.205892376882767 2.7037879565674934 0.0
    vertex 3.863703305156272 1.0352761804100834 0.0
  endloop
endfacet
facet normal 0.0 0.0 -1.0
  outer loop
    vertex 3.863703305156272 1.0352761804100834 0.0
    vertex 4.205892376882767 2.7037879565674934 0.0
    vertex 3.999999999999999 0.0 0.0
  endloop
endfacet
facet normal 0.0 0.0 -1.0
  outer loop
    vertex 4.994303622247536 0.23860286839247938 0.0
    vertex 4.97441530287377 0.0 0.0
    vertex 4.762371886501877 1.5230935672691137 0.0
  endloop
endfacet
facet normal 0.0 0.0 -1.0
  outer loop
    vertex 3.999999999999999 0.0 0.0
    vertex 15.0 -0.99 0.0
    vertex 3.869664027388478 -0.99 0.0
  endloop
endfacet
facet normal 0.0 0.0 -1.0
  outer loop
    vertex 15.0 -0.99 0.0
    vertex 3.999999999999999 0.0 0.0
    vertex 4.97441530287377 0.0 0.0
  endloop
endfacet
facet normal 0.0 0.0 -1.0
  outer loop
    vertex 4.97441530287377 0.0 0.0
    vertex 3.999999999999999 0.0 0.0
    vertex 4.205892376882767 2.7037879565674934 0.0
  endloop
endfacet
facet normal 0.0 0.0 -1.0
  outer loop
    vertex 4.97441530287377 0.0 0.0
    vertex 4.205892376882767 2.7037879565674934 0.0
    vertex 4.762371886501877 1.5230935672691137 0.0
  endloop
endfacet
facet normal 0.0 0.0 -1.0
  outer loop
    vertex 15.0 -0.99 0.0
    vertex 4.97441530287377 0.0 0.0
    vertex 15.0 0.0 0.0
  endloop
endfacet
facet normal 0.0 0.0 -1.0
  outer loop
    vertex -4.205892376882767 -2.703787956567493 0.0
    vertex -3.863703305156273 -1.0352761804100812 0.0
    vertex -3.362788252344887 -3.7002236648466558 0.0
  endloop
endfacet
facet normal 0.0 0.0 -1.0
  outer loop
    vertex -3.863703305156273 -1.0352761804100812 0.0
    vertex -4.205892376882767 -2.703787956567493 0.0
    vertex -3.999999999999999 7.049916206369744e-16 0.0
  endloop
endfacet
facet normal 0.0 0.0 -1.0
  outer loop
    vertex -3.362788252344887 -3.7002236648466558 0.0
    vertex -3.863703305156273 -1.0352761804100812 0.0
    vertex -3.4641016151377544 -1.999999999999999 0.0
  endloop
endfacet
facet normal 0.0 0.0 -1.0
  outer loop
    vertex -3.362788252344887 -3.7002236648466558 0.0
    vertex -3.4641016151377544 -1.999999999999999 0.0
    vertex -2.828427124746191 -2.8284271247461885 0.0
  endloop
endfacet
facet normal 0.0 0.0 -1.0
  outer loop
    vertex -3.362788252344887 -3.7002236648466558 0.0
    vertex -2.828427124746191 -2.8284271247461885 0.0
    vertex -2.2905156656800445 -4.444495245275249 0.0
  endloop
endfacet
facet normal 0.0 0.0 -1.0
  outer loop
    vertex -2.2905156656800445 -4.444495245275249 0.0
    vertex -2.828427124746191 -2.8284271247461885 0.0
    vertex -2.0000000000000013 -3.464101615137753 0.0
  endloop
endfacet
facet normal 0.0 0.0 -1.0
  outer loop
    vertex -2.2905156656800445 -4.444495245275249 0.0
    vertex -2.0000000000000013 -3.464101615137753 0.0
    vertex -1.0621482216552196 -4.885881819614004 0.0
  endloop
endfacet
facet normal 0.0 0.0 -1.0
  outer loop
    vertex -1.0621482216552196 -4.885881819614004 0.0
    vertex -2.0000000000000013 -3.464101615137753 0.0
    vertex -1.035276180410086 -3.863703305156272 0.0
  endloop
endfacet
facet normal 0.0 0.0 -1.0
  outer loop
    vertex -1.0621482216552196 -4.885881819614004 0.0
    vertex -1.035276180410086 -3.863703305156272 0.0
    vertex 0.0 -4.9920599999999995 0.0
  endloop
endfacet
facet normal 0.0 0.0 -1.0
  outer loop
    vertex 0.0 -4.9920599999999995 0.0
    vertex -1.035276180410086 -3.863703305156272 0.0
    vertex -7.049916206369744e-16 -3.9999999999999996 0.0
  endloop
endfacet
facet normal 0.0 0.0 -1.0
  outer loop
    vertex 0.0 -4.9920599999999995 0.0
    vertex -7.049916206369744e-16 -3.9999999999999996 0.0
    vertex 15.0 -3.9999999999999996 0.0
  endloop
endfacet
facet normal 0.0 0.0 -1.0
  outer loop
    vertex 0.0 -4.9920599999999995 0.0
    vertex 15.0 -3.9999999999999996 0.0
    vertex 15.0 -4.9920599999999995 0.0
  endloop
endfacet
facet normal 0.6087614290087213 0.0 -0.7933533402912347
  outer loop
    vertex 10.5 -3.999999999999998 6.732050807568878
    vertex 10.085786437626906 -4.9920599999999995 6.414213562373095
    vertex 10.085786437626906 -3.999999999999998 6.414213562373095
  endloop
endfacet
facet normal 0.6087614290087213 0.0 -0.7933533402912347
  outer loop
    vertex 10.085786437626906 -4.9920599999999995 6.414213562373095
    vertex 10.5 -3.999999999999998 6.732050807568878
    vertex 10.5 -4.9920599999999995 6.732050807568878
  endloop
endfacet
facet normal -0.7933533402912347 0.0 0.6087614290087213
  outer loop
    vertex 13.232050807568877 -3.999999999999998 3.9999999999999996
    vertex 12.914213562373094 -4.9920599999999995 3.585786437626905
    vertex 13.232050807568877 -4.9920599999999995 3.9999999999999996
  endloop
endfacet
facet normal -0.7933533402912347 0.0 0.6087614290087213
  outer loop
    vertex 12.914213562373094 -4.9920599999999995 3.585786437626905
    vertex 13.232050807568877 -3.999999999999998 3.9999999999999996
    vertex 12.914213562373094 -3.999999999999998 3.585786437626905
  endloop
endfacet
facet normal 0.7633990476021025 0.6459271585250175 0.0
  outer loop
    vertex 3.3627882523448855 3.7002236648466567 0.0
    vertex 4.205892376882767 2.7037879565674934 10.0
    vertex 4.205892376882767 2.7037879565674934 0.0
  endloop
endfacet
facet normal 0.7633990476021025 0.6459271585250175 0.0
  outer loop
    vertex 4.205892376882767 2.7037879565674934 10.0
    vertex 3.3627882523448855 3.7002236648466567 0.0
    vertex 3.3627882523448855 3.7002236648466567 10.0
  endloop
endfacet
facet normal 0.9238795325112867 -0.3826834323650899 0.0
  outer loop
    vertex -3.464101615137753 2.0000000000000013 0.0
    vertex -3.863703305156272 1.035276180410084 10.0
    vertex -3.863703305156272 1.035276180410084 0.0
  endloop
endfacet
facet normal 0.9238795325112867 -0.3826834323650899 0.0
  outer loop
    vertex -3.863703305156272 1.035276180410084 10.0
    vertex -3.464101615137753 2.0000000000000013 0.0
    vertex -3.464101615137753 2.0000000000000013 10.0
  endloop
endfacet
facet normal 0.9238795325112873 0.0 -0.3826834323650885
  outer loop
    vertex 9.568148347421863 -3.999999999999998 5.517638090205041
    vertex 9.767949192431123 -4.9920599999999995 6.0
    vertex 9.568148347421863 -4.9920599999999995 5.517638090205041
  endloop
endfacet
facet normal 0.9238795325112873 0.0 -0.3826834323650885
  outer loop
    vertex 9.767949192431123 -4.9920599999999995 6.0
    vertex 9.568148347421863 -3.999999999999998 5.517638090205041
    vertex 9.767949192431123 -3.999999999999998 6.0
  endloop
endfacet
facet normal -0.1305261922200518 -0.0 -0.9914448613738104
  outer loop
    vertex 12.017638090205041 -3.999999999999998 6.931851652578138
    vertex 11.500000000000002 -4.9920599999999995 7.000000000000001
    vertex 11.500000000000002 -3.999999999999998 7.000000000000001
  endloop
endfacet
facet normal -0.1305261922200518 -0.0 -0.9914448613738104
  outer loop
    vertex 11.500000000000002 -4.9920599999999995 7.000000000000001
    vertex 12.017638090205041 -3.999999999999998 6.931851652578138
    vertex 12.017638090205041 -4.9920599999999995 6.931851652578138
  endloop
endfacet
facet normal -0.7633990476021028 -0.6459271585250169 -0.0
  outer loop
    vertex -4.205892376882767 -2.703787956567493 10.0
    vertex -3.362788252344887 -3.7002236648466558 0.0
    vertex -3.362788252344887 -3.7002236648466558 10.0
  endloop
endfacet
facet normal -0.7633990476021028 -0.6459271585250169 -0.0
  outer loop
    vertex -3.362788252344887 -3.7002236648466558 0.0
    vertex -4.205892376882767 -2.703787956567493 10.0
    vertex -4.205892376882767 -2.703787956567493 0.0
  endloop
endfacet
facet normal -0.9045651062185781 -0.42633551178827733 -0.0
  outer loop
    vertex -4.7623718865018745 -1.5230935672691173 10.0
    vertex -4.205892376882767 -2.703787956567493 0.0
    vertex -4.205892376882767 -2.703787956567493 10.0
  endloop
endfacet
facet normal -0.9045651062185781 -0.42633551178827733 -0.0
  outer loop
    vertex -4.205892376882767 -2.703787956567493 0.0
    vertex -4.7623718865018745 -1.5230935672691173 10.0
    vertex -4.7623718865018745 -1.5230935672691173 0.0
  endloop
endfacet
facet normal -0.9965441172563965 0.0830651693652009 0.0
  outer loop
    vertex -4.885881819614004 1.0621482216552183 10.0
    vertex -4.994303622247537 -0.2386028683924801 0.0
    vertex -4.994303622247537 -0.2386028683924801 10.0
  endloop
endfacet
facet normal -0.9965441172563965 0.0830651693652009 0.0
  outer loop
    vertex -4.994303622247537 -0.2386028683924801 0.0
    vertex -4.885881819614004 1.0621482216552183 10.0
    vertex -4.885881819614004 1.0621482216552183 0.0
  endloop
endfacet
facet normal -0.4263355117882774 0.9045651062185781 0.0
  outer loop
    vertex -2.703787956567494 4.205892376882767 10.0
    vertex -1.523093567269118 4.762371886501875 0.0
    vertex -2.703787956567494 4.205892376882767 0.0
  endloop
endfacet
facet normal -0.4263355117882774 0.9045651062185781 0.0
  outer loop
    vertex -1.523093567269118 4.762371886501875 0.0
    vertex -2.703787956567494 4.205892376882767 10.0
    vertex -1.523093567269118 4.762371886501875 10.0
  endloop
endfacet
facet normal 1.0 0.0 0.0
  outer loop
    vertex 15.0 0.0 0.0
    vertex 15.0 -0.99 10.0
    vertex 15.0 -0.99 0.0
  endloop
endfacet
facet normal 1.0 0.0 0.0
  outer loop
    vertex 15.0 -0.99 10.0
    vertex 15.0 0.0 0.0
    vertex 15.0 0.0 10.0
  endloop
endfacet
facet normal 0.6087614290087192 0.0 0.7933533402912364
  outer loop
    vertex 10.5 -4.9920599999999995 3.2679491924311224
    vertex 10.085786437626906 -3.999999999999998 3.585786437626904
    vertex 10.085786437626906 -4.9920599999999995 3.585786437626904
  endloop
endfacet
facet normal 0.6087614290087192 0.0 0.7933533402912364
  outer loop
    vertex 10.085786437626906 -3.999999999999998 3.585786437626904
    vertex 10.5 -4.9920599999999995 3.2679491924311224
    vertex 10.5 -3.999999999999998 3.2679491924311224
  endloop
endfacet
facet normal -0.17768980447591196 0.9840865477107754 0.0
  outer loop
    vertex -1.523093567269118 4.762371886501875 10.0
    vertex -0.2386028683924822 4.994303622247537 0.0
    vertex -1.523093567269118 4.762371886501875 0.0
  endloop
endfacet
facet normal -0.17768980447591196 0.9840865477107754 0.0
  outer loop
    vertex -0.2386028683924822 4.994303622247537 0.0
    vertex -1.523093567269118 4.762371886501875 10.0
    vertex -0.2386028683924822 4.994303622247537 10.0
  endloop
endfacet
facet normal 0.08306516936520084 0.9965441172563966 0.0
  outer loop
    vertex -0.2386028683924822 4.994303622247537 10.0
    vertex 1.0621482216552174 4.8858818196140055 0.0
    vertex -0.2386028683924822 4.994303622247537 0.0
  endloop
endfacet
facet normal 0.08306516936520084 0.9965441172563966 0.0
  outer loop
    vertex 1.0621482216552174 4.8858818196140055 0.0
    vertex -0.2386028683924822 4.994303622247537 10.0
    vertex 1.0621482216552174 4.8858818196140055 10.0
  endloop
endfacet
facet normal 0.1305261922200518 0.0 0.9914448613738104
  outer loop
    vertex 11.500000000000002 -4.9920599999999995 2.9999999999999996
    vertex 10.982361909794959 -3.999999999999998 3.068148347421863
    vertex 10.982361909794959 -4.9920599999999995 3.068148347421863
  endloop
endfacet
facet normal 0.1305261922200518 0.0 0.9914448613738104
  outer loop
    vertex 10.982361909794959 -3.999999999999998 3.068148347421863
    vertex 11.500000000000002 -4.9920599999999995 2.9999999999999996
    vertex 11.500000000000002 -3.999999999999998 2.9999999999999996
  endloop
endfacet
facet normal 0.7933533402912353 0.0 -0.6087614290087208
  outer loop
    vertex 9.767949192431123 -3.999999999999998 6.0
    vertex 10.085786437626906 -4.9920599999999995 6.414213562373095
    vertex 9.767949192431123 -4.9920599999999995 6.0
  endloop
endfacet
facet normal 0.7933533402912353 0.0 -0.6087614290087208
  outer loop
    vertex 10.085786437626906 -4.9920599999999995 6.414213562373095
    vertex 9.767949192431123 -3.999999999999998 6.0
    vertex 10.085786437626906 -3.999999999999998 6.414213562373095
  endloop
endfacet
facet normal 0.9914448613738104 0.0 0.13052619222005163
  outer loop
    vertex 9.568148347421863 -3.999999999999998 4.482361909794958
    vertex 9.5 -4.9920599999999995 5.0
    vertex 9.568148347421863 -4.9920599999999995 4.482361909794958
  endloop
endfacet
facet normal 0.9914448613738104 0.0 0.13052619222005163
  outer loop
    vertex 9.5 -4.9920599999999995 5.0
    vertex 9.568148347421863 -3.999999999999998 4.482361909794958
    vertex 9.5 -3.999999999999998 5.0
  endloop
endfacet
facet normal -0.9238795325112861 0.0 0.3826834323650913
  outer loop
    vertex 13.431851652578137 -3.999999999999998 4.482361909794958
    vertex 13.232050807568877 -4.9920599999999995 3.9999999999999996
    vertex 13.431851652578137 -4.9920599999999995 4.482361909794958
  endloop
endfacet
facet normal -0.9238795325112861 0.0 0.3826834323650913
  outer loop
    vertex 13.232050807568877 -4.9920599999999995 3.9999999999999996
    vertex 13.431851652578137 -3.999999999999998 4.482361909794958
    vertex 13.232050807568877 -3.999999999999998 3.9999999999999996
  endloop
endfacet
facet normal -0.38268343236508895 -0.0 -0.9238795325112871
  outer loop
    vertex 12.5 -3.999999999999998 6.732050807568879
    vertex 12.017638090205041 -4.9920599999999995 6.931851652578138
    vertex 12.017638090205041 -3.999999999999998 6.931851652578138
  endloop
endfacet
facet normal -0.38268343236508895 -0.0 -0.9238795325112871
  outer loop
    vertex 12.017638090205041 -4.9920599999999995 6.931851652578138
    vertex 12.5 -3.999999999999998 6.732050807568879
    vertex 12.5 -4.9920599999999995 6.732050807568879
  endloop
endfacet
facet normal 0.1305261922200541 0.0 -0.99144486137381
  outer loop
    vertex 11.500000000000002 -3.999999999999998 7.000000000000001
    vertex 10.982361909794959 -4.9920599999999995 6.931851652578136
    vertex 10.982361909794959 -3.999999999999998 6.931851652578136
  endloop
endfacet
facet normal 0.1305261922200541 0.0 -0.99144486137381
  outer loop
    vertex 10.982361909794959 -4.9920599999999995 6.931851652578136
    vertex 11.500000000000002 -3.999999999999998 7.000000000000001
    vertex 11.500000000000002 -4.9920599999999995 7.000000000000001
  endloop
endfacet
facet normal -0.9914448613738106 -0.0 -0.1305261922200513
  outer loop
    vertex 13.431851652578137 -3.999999999999998 5.517638090205043
    vertex 13.5 -4.9920599999999995 5.0
    vertex 13.431851652578137 -4.9920599999999995 5.517638090205043
  endloop
endfacet
facet normal -0.9914448613738106 -0.0 -0.1305261922200513
  outer loop
    vertex 13.5 -4.9920599999999995 5.0
    vertex 13.431851652578137 -3.999999999999998 5.517638090205043
    vertex 13.5 -3.999999999999998 5.0
  endloop
endfacet
facet normal 0.9238795325112863 0.0 0.38268343236509084
  outer loop
    vertex 9.767949192431123 -3.999999999999998 3.999999999999999
    vertex 9.568148347421863 -4.9920599999999995 4.482361909794958
    vertex 9.767949192431123 -4.9920599999999995 3.999999999999999
  endloop
endfacet
facet normal 0.9238795325112863 0.0 0.38268343236509084
  outer loop
    vertex 9.568148347421863 -4.9920599999999995 4.482361909794958
    vertex 9.767949192431123 -3.999999999999998 3.999999999999999
    vertex 9.568148347421863 -3.999999999999998 4.482361909794958
  endloop
endfacet
facet normal -0.9238795325112861 -0.0 -0.38268343236509184
  outer loop
    vertex 13.232050807568877 -3.999999999999998 6.000000000000001
    vertex 13.431851652578137 -4.9920599999999995 5.517638090205043
    vertex 13.232050807568877 -4.9920599999999995 6.000000000000001
  endloop
endfacet
facet normal -0.9238795325112861 -0.0 -0.38268343236509184
  outer loop
    vertex 13.431851652578137 -4.9920599999999995 5.517638090205043
    vertex 13.232050807568877 -3.999999999999998 6.000000000000001
    vertex 13.431851652578137 -3.999999999999998 5.517638090205043
  endloop
endfacet
facet normal 0.9914448613738105 0.0 -0.130526192220052
  outer loop
    vertex 9.5 -3.999999999999998 5.0
    vertex 9.568148347421863 -4.9920599999999995 5.517638090205041
    vertex 9.5 -4.9920599999999995 5.0
  endloop
endfacet
facet normal 0.9914448613738105 0.0 -0.130526192220052
  outer loop
    vertex 9.568148347421863 -4.9920599999999995 5.517638090205041
    vertex 9.5 -3.999999999999998 5.0
    vertex 9.568148347421863 -3.999999999999998 5.517638090205041
  endloop
endfacet
facet normal -0.3826834323650902 0.0 0.9238795325112867
  outer loop
    vertex 12.500000000000002 -4.9920599999999995 3.2679491924311224
    vertex 12.017638090205045 -3.999999999999998 3.068148347421863
    vertex 12.017638090205045 -4.9920599999999995 3.068148347421863
  endloop
endfacet
facet normal -0.3826834323650902 0.0 0.9238795325112867
  outer loop
    vertex 12.017638090205045 -3.999999999999998 3.068148347421863
    vertex 12.500000000000002 -4.9920599999999995 3.2679491924311224
    vertex 12.500000000000002 -3.999999999999998 3.2679491924311224
  endloop
endfacet
facet normal -0.6087614290087227 0.0 0.7933533402912337
  outer loop
    vertex 12.914213562373094 -4.9920599999999995 3.585786437626905
    vertex 12.500000000000002 -3.999999999999998 3.2679491924311224
    vertex 12.500000000000002 -4.9920599999999995 3.2679491924311224
  endloop
endfacet
facet normal -0.6087614290087227 0.0 0.7933533402912337
  outer loop
    vertex 12.500000000000002 -3.999999999999998 3.2679491924311224
    vertex 12.914213562373094 -4.9920599999999995 3.585786437626905
    vertex 12.914213562373094 -3.999999999999998 3.585786437626905
  endloop
endfacet
facet normal -0.9914448613738104 0.0 0.13052619222005163
  outer loop
    vertex 13.5 -3.999999999999998 5.0
    vertex 13.431851652578137 -4.9920599999999995 4.482361909794958
    vertex 13.5 -4.9920599999999995 5.0
  endloop
endfacet
facet normal -0.9914448613738104 0.0 0.13052619222005163
  outer loop
    vertex 13.431851652578137 -4.9920599999999995 4.482361909794958
    vertex 13.5 -3.999999999999998 5.0
    vertex 13.431851652578137 -3.999999999999998 4.482361909794958
  endloop
endfacet
facet normal 0.7933533402912359 0.0 0.6087614290087197
  outer loop
    vertex 10.085786437626906 -3.999999999999998 3.585786437626904
    vertex 9.767949192431123 -4.9920599999999995 3.999999999999999
    vertex 10.085786437626906 -4.9920599999999995 3.585786437626904
  endloop
endfacet
facet normal 0.7933533402912359 0.0 0.6087614290087197
  outer loop
    vertex 9.767949192431123 -4.9920599999999995 3.999999999999999
    vertex 10.085786437626906 -3.999999999999998 3.585786437626904
    vertex 9.767949192431123 -3.999999999999998 3.999999999999999
  endloop
endfacet
facet normal -0.7933533402912342 -0.0 -0.608761429008722
  outer loop
    vertex 12.914213562373094 -3.999999999999998 6.414213562373095
    vertex 13.232050807568877 -4.9920599999999995 6.000000000000001
    vertex 12.914213562373094 -4.9920599999999995 6.414213562373095
  endloop
endfacet
facet normal -0.7933533402912342 -0.0 -0.608761429008722
  outer loop
    vertex 13.232050807568877 -4.9920599999999995 6.000000000000001
    vertex 12.914213562373094 -3.999999999999998 6.414213562373095
    vertex 13.232050807568877 -3.999999999999998 6.000000000000001
  endloop
endfacet
facet normal -0.9914448613738104 -0.13052619222005174 -0.0
  outer loop
    vertex 3.863703305156272 1.0352761804100834 10.0
    vertex 3.999999999999999 0.0 0.0
    vertex 3.999999999999999 0.0 10.0
  endloop
endfacet
facet normal -0.9914448613738104 -0.13052619222005174 -0.0
  outer loop
    vertex 3.999999999999999 0.0 0.0
    vertex 3.863703305156272 1.0352761804100834 10.0
    vertex 3.863703305156272 1.0352761804100834 0.0
  endloop
endfacet
facet normal 0.7933533402912355 0.6087614290087203 0.0
  outer loop
    vertex -3.4641016151377544 -1.999999999999999 0.0
    vertex -2.828427124746191 -2.8284271247461885 10.0
    vertex -2.828427124746191 -2.8284271247461885 0.0
  endloop
endfacet
facet normal 0.7933533402912355 0.6087614290087203 0.0
  outer loop
    vertex -2.828427124746191 -2.8284271247461885 10.0
    vertex -3.4641016151377544 -1.999999999999999 0.0
    vertex -3.4641016151377544 -1.999999999999999 10.0
  endloop
endfacet
facet normal 0.9965441172563965 -0.08306516936520174 0.0
  outer loop
    vertex 4.994303622247536 0.23860286839247938 0.0
    vertex 4.97441530287377 0.0 10.0
    vertex 4.97441530287377 0.0 0.0
  endloop
endfacet
facet normal 0.9965441172563965 -0.08306516936520174 0.0
  outer loop
    vertex 4.97441530287377 0.0 10.0
    vertex 4.994303622247536 0.23860286839247938 0.0
    vertex 4.994303622247536 0.23860286839247938 10.0
  endloop
endfacet
facet normal 0.6087614290087209 0.7933533402912349 0.0
  outer loop
    vertex -2.828427124746191 -2.8284271247461885 10.0
    vertex -2.0000000000000013 -3.464101615137753 0.0
    vertex -2.828427124746191 -2.8284271247461885 0.0
  endloop
endfacet
facet normal 0.6087614290087209 0.7933533402912349 0.0
  outer loop
    vertex -2.0000000000000013 -3.464101615137753 0.0
    vertex -2.828427124746191 -2.8284271247461885 10.0
    vertex -2.0000000000000013 -3.464101615137753 10.0
  endloop
endfacet
facet normal -0.5790892658800273 -4.713093083514553e-18 -0.8152641425590428
  outer loop
    vertex 12.861096802230524 0.0 6.4654062559433285
    vertex 12.435443505503416 -0.99 6.767751523266629
    vertex 12.435443505503416 0.0 6.767751523266629
  endloop
endfacet
facet normal -0.5790892658800273 -4.713093083514553e-18 -0.8152641425590428
  outer loop
    vertex 12.435443505503416 -0.99 6.767751523266629
    vertex 12.861096802230524 0.0 6.4654062559433285
    vertex 12.861096802230524 -0.99 6.4654062559433285
  endloop
endfacet
facet normal 0.9373640213693811 7.629020508848727e-18 -0.34835139075683685
  outer loop
    vertex 9.550372554373178 0.0 5.446041279769732
    vertex 9.732248476733375 -0.99 5.935443505503415
    vertex 9.550372554373178 -0.99 5.446041279769732
  endloop
endfacet
facet normal 0.9373640213693811 7.629020508848727e-18 -0.34835139075683685
  outer loop
    vertex 9.732248476733375 -0.99 5.935443505503415
    vertex 9.550372554373178 0.0 5.446041279769732
    vertex 9.732248476733375 0.0 5.935443505503415
  endloop
endfacet
facet normal -0.09387394403146387 -7.640214771790104e-19 -0.9955840911906827
  outer loop
    vertex 11.946041279769734 0.0 6.949627445626825
    vertex 11.426242077937811 -0.99 6.9986394794792455
    vertex 11.426242077937811 0.0 6.9986394794792455
  endloop
endfacet
facet normal -0.09387394403146387 -7.640214771790104e-19 -0.9955840911906827
  outer loop
    vertex 11.426242077937811 -0.99 6.9986394794792455
    vertex 11.946041279769734 0.0 6.949627445626825
    vertex 11.946041279769734 -0.99 6.949627445626825
  endloop
endfacet
facet normal 0.9859567504778421 8.024507127171298e-18 0.16700085684562901
  outer loop
    vertex 9.588552464286941 0.0 4.411469356603699
    vertex 9.501360520520757 -0.99 4.926242077937811
    vertex 9.588552464286941 -0.99 4.411469356603699
  endloop
endfacet
facet normal 0.9859567504778421 8.024507127171298e-18 0.16700085684562901
  outer loop
    vertex 9.501360520520757 -0.99 4.926242077937811
    vertex 9.588552464286941 0.0 4.411469356603699
    vertex 9.501360520520757 0.0 4.926242077937811
  endloop
endfacet
facet normal 0.0 0.0 1.0
  outer loop
    vertex -4.205892376882767 -2.703787956567493 10.0
    vertex -3.863703305156273 -1.0352761804100812 10.0
    vertex -3.999999999999999 7.049916206369744e-16 10.0
  endloop
endfacet
facet normal 0.0 0.0 1.0
  outer loop
    vertex -3.863703305156273 -1.0352761804100812 10.0
    vertex -4.205892376882767 -2.703787956567493 10.0
    vertex -3.362788252344887 -3.7002236648466558 10.0
  endloop
endfacet
facet normal 0.0 0.0 1.0
  outer loop
    vertex -3.863703305156273 -1.0352761804100812 10.0
    vertex -3.362788252344887 -3.7002236648466558 10.0
    vertex -3.4641016151377544 -1.999999999999999 10.0
  endloop
endfacet
facet normal 0.0 0.0 1.0
  outer loop
    vertex -3.4641016151377544 -1.999999999999999 10.0
    vertex -3.362788252344887 -3.7002236648466558 10.0
    vertex -2.828427124746191 -2.8284271247461885 10.0
  endloop
endfacet
facet normal 0.0 0.0 1.0
  outer loop
    vertex -2.828427124746191 -2.8284271247461885 10.0
    vertex -3.362788252344887 -3.7002236648466558 10.0
    vertex -2.2905156656800445 -4.444495245275249 10.0
  endloop
endfacet
facet normal 0.0 0.0 1.0
  outer loop
    vertex -2.828427124746191 -2.8284271247461885 10.0
    vertex -2.2905156656800445 -4.444495245275249 10.0
    vertex -2.0000000000000013 -3.464101615137753 10.0
  endloop
endfacet
facet normal 0.0 0.0 1.0
  outer loop
    vertex -2.0000000000000013 -3.464101615137753 10.0
    vertex -2.2905156656800445 -4.444495245275249 10.0
    vertex -1.0621482216552196 -4.885881819614004 10.0
  endloop
endfacet
facet normal 0.0 0.0 1.0
  outer loop
    vertex -2.0000000000000013 -3.464101615137753 10.0
    vertex -1.0621482216552196 -4.885881819614004 10.0
    vertex -1.035276180410086 -3.863703305156272 10.0
  endloop
endfacet
facet normal 0.0 0.0 1.0
  outer loop
    vertex -1.035276180410086 -3.863703305156272 10.0
    vertex -1.0621482216552196 -4.885881819614004 10.0
    vertex 0.0 -4.9920599999999995 10.0
  endloop
endfacet
facet normal 0.0 0.0 1.0
  outer loop
    vertex -1.035276180410086 -3.863703305156272 10.0
    vertex 0.0 -4.9920599999999995 10.0
    vertex -7.049916206369744e-16 -3.9999999999999996 10.0
  endloop
endfacet
facet normal 0.0 0.0 1.0
  outer loop
    vertex -7.049916206369744e-16 -3.9999999999999996 10.0
    vertex 0.0 -4.9920599999999995 10.0
    vertex 15.0 -3.9999999999999996 10.0
  endloop
endfacet
facet normal 0.0 0.0 1.0
  outer loop
    vertex 15.0 -3.9999999999999996 10.0
    vertex 0.0 -4.9920599999999995 10.0
    vertex 15.0 -4.9920599999999995 10.0
  endloop
endfacet
facet normal 0.0 0.0 1.0
  outer loop
    vertex -4.7623718865018745 -1.5230935672691173 10.0
    vertex -4.885881819614004 1.0621482216552183 10.0
    vertex -4.994303622247537 -0.2386028683924801 10.0
  endloop
endfacet
facet normal 0.0 0.0 1.0
  outer loop
    vertex -4.885881819614004 1.0621482216552183 10.0
    vertex -4.7623718865018745 -1.5230935672691173 10.0
    vertex -4.444495245275249 2.2905156656800445 10.0
  endloop
endfacet
facet normal 0.0 0.0 1.0
  outer loop
    vertex -4.444495245275249 2.2905156656800445 10.0
    vertex -4.7623718865018745 -1.5230935672691173 10.0
    vertex -4.205892376882767 -2.703787956567493 10.0
  endloop
endfacet
facet normal 0.0 0.0 1.0
  outer loop
    vertex -4.444495245275249 2.2905156656800445 10.0
    vertex -4.205892376882767 -2.703787956567493 10.0
    vertex -3.999999999999999 7.049916206369744e-16 10.0
  endloop
endfacet
facet normal 0.0 0.0 1.0
  outer loop
    vertex -4.444495245275249 2.2905156656800445 10.0
    vertex -3.999999999999999 7.049916206369744e-16 10.0
    vertex -3.7002236648466567 3.3627882523448855 10.0
  endloop
endfacet
facet normal 0.0 0.0 1.0
  outer loop
    vertex -3.7002236648466567 3.3627882523448855 10.0
    vertex -3.999999999999999 7.049916206369744e-16 10.0
    vertex -3.863703305156272 1.035276180410084 10.0
  endloop
endfacet
facet normal 0.0 0.0 1.0
  outer loop
    vertex -3.7002236648466567 3.3627882523448855 10.0
    vertex -3.863703305156272 1.035276180410084 10.0
    vertex -3.464101615137753 2.0000000000000013 10.0
  endloop
endfacet
facet normal 0.0 0.0 1.0
  outer loop
    vertex -3.7002236648466567 3.3627882523448855 10.0
    vertex -3.464101615137753 2.0000000000000013 10.0
    vertex -2.703787956567494 4.205892376882767 10.0
  endloop
endfacet
facet normal 0.0 0.0 1.0
  outer loop
    vertex -2.703787956567494 4.205892376882767 10.0
    vertex -3.464101615137753 2.0000000000000013 10.0
    vertex -2.8284271247461894 2.8284271247461894 10.0
  endloop
endfacet
facet normal 0.0 0.0 1.0
  outer loop
    vertex -2.703787956567494 4.205892376882767 10.0
    vertex -2.8284271247461894 2.8284271247461894 10.0
    vertex -1.9999999999999984 3.4641016151377544 10.0
  endloop
endfacet
facet normal 0.0 0.0 1.0
  outer loop
    vertex -2.703787956567494 4.205892376882767 10.0
    vertex -1.9999999999999984 3.4641016151377544 10.0
    vertex -1.523093567269118 4.762371886501875 10.0
  endloop
endfacet
facet normal 0.0 0.0 1.0
  outer loop
    vertex -1.523093567269118 4.762371886501875 10.0
    vertex -1.9999999999999984 3.4641016151377544 10.0
    vertex -1.0352761804100818 3.863703305156272 10.0
  endloop
endfacet
facet normal 0.0 0.0 1.0
  outer loop
    vertex -1.523093567269118 4.762371886501875 10.0
    vertex -1.0352761804100818 3.863703305156272 10.0
    vertex -0.2386028683924822 4.994303622247537 10.0
  endloop
endfacet
facet normal 0.0 0.0 1.0
  outer loop
    vertex -0.2386028683924822 4.994303622247537 10.0
    vertex -1.0352761804100818 3.863703305156272 10.0
    vertex 0.0 3.999999999999999 10.0
  endloop
endfacet
facet normal 0.0 0.0 1.0
  outer loop
    vertex -0.2386028683924822 4.994303622247537 10.0
    vertex 0.0 3.999999999999999 10.0
    vertex 1.0621482216552174 4.8858818196140055 10.0
  endloop
endfacet
facet normal 0.0 0.0 1.0
  outer loop
    vertex 1.0621482216552174 4.8858818196140055 10.0
    vertex 0.0 3.999999999999999 10.0
    vertex 1.0352761804100834 3.863703305156272 10.0
  endloop
endfacet
facet normal 0.0 0.0 1.0
  outer loop
    vertex 1.0621482216552174 4.8858818196140055 10.0
    vertex 1.0352761804100834 3.863703305156272 10.0
    vertex 1.9999999999999998 3.4641016151377544 10.0
  endloop
endfacet
facet normal 0.0 0.0 1.0
  outer loop
    vertex 1.0621482216552174 4.8858818196140055 10.0
    vertex 1.9999999999999998 3.4641016151377544 10.0
    vertex 2.2905156656800445 4.44449524527525 10.0
  endloop
endfacet
facet normal 0.0 0.0 1.0
  outer loop
    vertex 2.2905156656800445 4.44449524527525 10.0
    vertex 1.9999999999999998 3.4641016151377544 10.0
    vertex 2.8284271247461894 2.8284271247461894 10.0
  endloop
endfacet
facet normal 0.0 0.0 1.0
  outer loop
    vertex 2.2905156656800445 4.44449524527525 10.0
    vertex 2.8284271247461894 2.8284271247461894 10.0
    vertex 3.3627882523448855 3.7002236648466567 10.0
  endloop
endfacet
facet normal 0.0 0.0 1.0
  outer loop
    vertex 3.3627882523448855 3.7002236648466567 10.0
    vertex 2.8284271247461894 2.8284271247461894 10.0
    vertex 3.464101615137753 1.9999999999999998 10.0
  endloop
endfacet
facet normal 0.0 0.0 1.0
  outer loop
    vertex 3.3627882523448855 3.7002236648466567 10.0
    vertex 3.464101615137753 1.9999999999999998 10.0
    vertex 4.205892376882767 2.7037879565674934 10.0
  endloop
endfacet
facet normal 0.0 0.0 1.0
  outer loop
    vertex 4.205892376882767 2.7037879565674934 10.0
    vertex 3.464101615137753 1.9999999999999998 10.0
    vertex 3.863703305156272 1.0352761804100834 10.0
  endloop
endfacet
facet normal 0.0 0.0 1.0
  outer loop
    vertex 4.205892376882767 2.7037879565674934 10.0
    vertex 3.863703305156272 1.0352761804100834 10.0
    vertex 3.999999999999999 0.0 10.0
  endloop
endfacet
facet normal 0.0 0.0 1.0
  outer loop
    vertex 15.0 -0.99 10.0
    vertex 3.999999999999999 0.0 10.0
    vertex 3.869664027388478 -0.99 10.0
  endloop
endfacet
facet normal 0.0 0.0 1.0
  outer loop
    vertex 3.999999999999999 0.0 10.0
    vertex 15.0 -0.99 10.0
    vertex 4.97441530287377 0.0 10.0
  endloop
endfacet
facet normal 0.0 0.0 1.0
  outer loop
    vertex 3.999999999999999 0.0 10.0
    vertex 4.97441530287377 0.0 10.0
    vertex 4.205892376882767 2.7037879565674934 10.0
  endloop
endfacet
facet normal 0.0 0.0 1.0
  outer loop
    vertex 4.205892376882767 2.7037879565674934 10.0
    vertex 4.97441530287377 0.0 10.0
    vertex 4.762371886501877 1.5230935672691137 10.0
  endloop
endfacet
facet normal 0.0 0.0 1.0
  outer loop
    vertex 4.97441530287377 0.0 10.0
    vertex 15.0 -0.99 10.0
    vertex 15.0 0.0 10.0
  endloop
endfacet
facet normal 0.0 0.0 1.0
  outer loop
    vertex 4.994303622247536 0.23860286839247938 10.0
    vertex 4.762371886501877 1.5230935672691137 10.0
    vertex 4.97441530287377 0.0 10.0
  endloop
endfacet
facet normal 0.13052619222005216 0.9914448613738104 0.0
  outer loop
    vertex -1.035276180410086 -3.863703305156272 10.0
    vertex -7.049916206369744e-16 -3.9999999999999996 0.0
    vertex -1.035276180410086 -3.863703305156272 0.0
  endloop
endfacet
facet normal 0.13052619222005216 0.9914448613738104 0.0
  outer loop
    vertex -7.049916206369744e-16 -3.9999999999999996 0.0
    vertex -1.035276180410086 -3.863703305156272 10.0
    vertex -7.049916206369744e-16 -3.9999999999999996 10.0
  endloop
endfacet
facet normal -0.6459271585250177 0.7633990476021023 0.0
  outer loop
    vertex -3.7002236648466567 3.3627882523448855 10.0
    vertex -2.703787956567494 4.205892376882767 0.0
    vertex -3.7002236648466567 3.3627882523448855 0.0
  endloop
endfacet
facet normal -0.6459271585250177 0.7633990476021023 0.0
  outer loop
    vertex -2.703787956567494 4.205892376882767 0.0
    vertex -3.7002236648466567 3.3627882523448855 10.0
    vertex -2.703787956567494 4.205892376882767 10.0
  endloop
endfacet
facet normal 0.16700085684562924 1.3591869677381927e-18 -0.9859567504778421
  outer loop
    vertex 11.426242077937811 0.0 6.9986394794792455
    vertex 10.9114693566037 -0.99 6.911447535713062
    vertex 10.9114693566037 0.0 6.911447535713062
  endloop
endfacet
facet normal 0.16700085684562924 1.3591869677381927e-18 -0.9859567504778421
  outer loop
    vertex 10.9114693566037 -0.99 6.911447535713062
    vertex 11.426242077937811 0.0 6.9986394794792455
    vertex 11.426242077937811 -0.99 6.9986394794792455
  endloop
endfacet
facet normal -0.9840865477107755 -0.1776898044759118 -0.0
  outer loop
    vertex -4.994303622247537 -0.2386028683924801 10.0
    vertex -4.7623718865018745 -1.5230935672691173 0.0
    vertex -4.7623718865018745 -1.5230935672691173 10.0
  endloop
endfacet
facet normal -0.9840865477107755 -0.1776898044759118 -0.0
  outer loop
    vertex -4.7623718865018745 -1.5230935672691173 0.0
    vertex -4.994303622247537 -0.2386028683924801 10.0
    vertex -4.994303622247537 -0.2386028683924801 0.0
  endloop
endfacet
facet normal -0.7933533402912354 -0.6087614290087203 -0.0
  outer loop
    vertex 2.8284271247461894 2.8284271247461894 10.0
    vertex 3.464101615137753 1.9999999999999998 0.0
    vertex 3.464101615137753 1.9999999999999998 10.0
  endloop
endfacet
facet normal -0.7933533402912354 -0.6087614290087203 -0.0
  outer loop
    vertex 3.464101615137753 1.9999999999999998 0.0
    vertex 2.8284271247461894 2.8284271247461894 10.0
    vertex 2.8284271247461894 2.8284271247461894 0.0
  endloop
endfacet
facet normal -0.9373640213693809 -7.629020508848725e-18 0.34835139075683774
  outer loop
    vertex 13.449627445626826 0.0 4.553958720230268
    vertex 13.267751523266629 -0.99 4.064556494496586
    vertex 13.449627445626826 -0.99 4.553958720230268
  endloop
endfacet
facet normal -0.9373640213693809 -7.629020508848725e-18 0.34835139075683774
  outer loop
    vertex 13.267751523266629 -0.99 4.064556494496586
    vertex 13.449627445626826 0.0 4.553958720230268
    vertex 13.267751523266629 0.0 4.064556494496586
  endloop
endfacet
facet normal -0.13052619222005168 -0.9914448613738104 -0.0
  outer loop
    vertex 1.0352761804100834 3.863703305156272 10.0
    vertex 0.0 3.999999999999999 0.0
    vertex 1.0352761804100834 3.863703305156272 0.0
  endloop
endfacet
facet normal -0.13052619222005168 -0.9914448613738104 -0.0
  outer loop
    vertex 0.0 3.999999999999999 0.0
    vertex 1.0352761804100834 3.863703305156272 10.0
    vertex 0.0 3.999999999999999 10.0
  endloop
endfacet
facet normal 0.9914448613738104 -0.13052619222005168 0.0
  outer loop
    vertex -3.863703305156272 1.035276180410084 0.0
    vertex -3.999999999999999 7.049916206369744e-16 10.0
    vertex -3.999999999999999 7.049916206369744e-16 0.0
  endloop
endfacet
facet normal 0.9914448613738104 -0.13052619222005168 0.0
  outer loop
    vertex -3.999999999999999 7.049916206369744e-16 10.0
    vertex -3.863703305156272 1.035276180410084 0.0
    vertex -3.863703305156272 1.035276180410084 10.0
  endloop
endfacet
facet normal 0.793353340291235 -0.6087614290087208 0.0
  outer loop
    vertex -2.8284271247461894 2.8284271247461894 0.0
    vertex -3.464101615137753 2.0000000000000013 10.0
    vertex -3.464101615137753 2.0000000000000013 0.0
  endloop
endfacet
facet normal 0.793353340291235 -0.6087614290087208 0.0
  outer loop
    vertex -3.464101615137753 2.0000000000000013 10.0
    vertex -2.8284271247461894 2.8284271247461894 0.0
    vertex -2.8284271247461894 2.8284271247461894 10.0
  endloop
endfacet
facet normal 0.3381593891857584 0.9410888520780143 0.0
  outer loop
    vertex 1.0621482216552174 4.8858818196140055 10.0
    vertex 2.2905156656800445 4.44449524527525 0.0
    vertex 1.0621482216552174 4.8858818196140055 0.0
  endloop
endfacet
facet normal 0.3381593891857584 0.9410888520780143 0.0
  outer loop
    vertex 2.2905156656800445 4.44449524527525 0.0
    vertex 1.0621482216552174 4.8858818196140055 10.0
    vertex 2.2905156656800445 4.44449524527525 10.0
  endloop
endfacet
facet normal -0.4164948253106567 -3.3897690669666977e-18 0.9091380865905055
  outer loop
    vertex 12.563195973975832 -0.99 3.306006398795561
    vertex 12.088530643396306 0.0 3.0885524642869386
    vertex 12.088530643396306 -0.99 3.0885524642869386
  endloop
endfacet
facet normal -0.4164948253106567 -3.3897690669666977e-18 0.9091380865905055
  outer loop
    vertex 12.088530643396306 0.0 3.0885524642869386
    vertex 12.563195973975832 -0.99 3.306006398795561
    vertex 12.563195973975832 0.0 3.306006398795561
  endloop
endfacet
facet normal -0.16700085684562943 -1.3591869677381944e-18 0.985956750477842
  outer loop
    vertex 12.088530643396306 -0.99 3.0885524642869386
    vertex 11.57375792206219 0.0 3.001360520520755
    vertex 11.57375792206219 -0.99 3.001360520520755
  endloop
endfacet
facet normal -0.16700085684562943 -1.3591869677381944e-18 0.985956750477842
  outer loop
    vertex 11.57375792206219 0.0 3.001360520520755
    vertex 12.088530643396306 -0.99 3.0885524642869386
    vertex 12.088530643396306 0.0 3.0885524642869386
  endloop
endfacet
facet normal 0.6376053597210048 5.189344006139667e-18 -0.7703631645237511
  outer loop
    vertex 10.43680402602417 0.0 6.693993601204439
    vertex 10.034593744056673 -0.99 6.361096802230524
    vertex 10.034593744056673 0.0 6.361096802230524
  endloop
endfacet
facet normal 0.6376053597210048 5.189344006139667e-18 -0.7703631645237511
  outer loop
    vertex 10.034593744056673 -0.99 6.361096802230524
    vertex 10.43680402602417 0.0 6.693993601204439
    vertex 10.43680402602417 -0.99 6.693993601204439
  endloop
endfacet
facet normal -0.9936834815003751 -8.087393463849272e-18 0.11221915430662363
  outer loop
    vertex 13.5 0.0 5.0
    vertex 13.449627445626826 -0.99 4.553958720230268
    vertex 13.5 -0.99 5.0
  endloop
endfacet
facet normal -0.9936834815003751 -8.087393463849272e-18 0.11221915430662363
  outer loop
    vertex 13.449627445626826 -0.99 4.553958720230268
    vertex 13.5 0.0 5.0
    vertex 13.449627445626826 0.0 4.553958720230268
  endloop
endfacet
facet normal -0.9859567504778414 -8.02450712717129e-18 -0.16700085684563404
  outer loop
    vertex 13.411447535713062 0.0 5.588530643396302
    vertex 13.498639479479248 -0.99 5.073757922062189
    vertex 13.411447535713062 -0.99 5.588530643396302
  endloop
endfacet
facet normal -0.9859567504778414 -8.02450712717129e-18 -0.16700085684563404
  outer loop
    vertex 13.498639479479248 -0.99 5.073757922062189
    vertex 13.411447535713062 0.0 5.588530643396302
    vertex 13.498639479479248 0.0 5.073757922062189
  endloop
endfacet
facet normal 0.7703631645237516 6.269833541110531e-18 0.6376053597210042
  outer loop
    vertex 10.138903197769478 0.0 3.5345937440566706
    vertex 9.806006398795564 -0.99 3.936804026024168
    vertex 10.138903197769478 -0.99 3.5345937440566706
  endloop
endfacet
facet normal 0.7703631645237516 6.269833541110531e-18 0.6376053597210042
  outer loop
    vertex 9.806006398795564 -0.99 3.936804026024168
    vertex 10.138903197769478 0.0 3.5345937440566706
    vertex 9.806006398795564 0.0 3.936804026024168
  endloop
endfacet
facet normal -0.6376053597210056 -5.189344006139674e-18 0.7703631645237504
  outer loop
    vertex 12.96540625594333 -0.99 3.6389031977694772
    vertex 12.563195973975832 0.0 3.306006398795561
    vertex 12.563195973975832 -0.99 3.306006398795561
  endloop
endfacet
facet normal -0.6376053597210056 -5.189344006139674e-18 0.7703631645237504
  outer loop
    vertex 12.563195973975832 0.0 3.306006398795561
    vertex 12.96540625594333 -0.99 3.6389031977694772
    vertex 12.96540625594333 0.0 3.6389031977694772
  endloop
endfacet
facet normal 0.8152641425590423 6.6352737270906555e-18 -0.5790892658800278
  outer loop
    vertex 9.732248476733375 0.0 5.935443505503415
    vertex 10.034593744056673 -0.99 6.361096802230524
    vertex 9.732248476733375 -0.99 5.935443505503415
  endloop
endfacet
facet normal 0.8152641425590423 6.6352737270906555e-18 -0.5790892658800278
  outer loop
    vertex 10.034593744056673 -0.99 6.361096802230524
    vertex 9.732248476733375 0.0 5.935443505503415
    vertex 10.034593744056673 0.0 6.361096802230524
  endloop
endfacet
facet normal -0.5702086054681191 -0.8214999368533772 -0.0
  outer loop
    vertex -2.2905156656800445 -4.444495245275249 10.0
    vertex -3.362788252344887 -3.7002236648466558 0.0
    vertex -2.2905156656800445 -4.444495245275249 0.0
  endloop
endfacet
facet normal -0.5702086054681191 -0.8214999368533772 -0.0
  outer loop
    vertex -3.362788252344887 -3.7002236648466558 0.0
    vertex -2.2905156656800445 -4.444495245275249 10.0
    vertex -3.362788252344887 -3.7002236648466558 10.0
  endloop
endfacet
facet normal -0.9998299204713833 -8.137418115848946e-18 -0.018442617227162245
  outer loop
    vertex 13.498639479479248 0.0 5.073757922062189
    vertex 13.5 -0.99 5.0
    vertex 13.498639479479248 -0.99 5.073757922062189
  endloop
endfacet
facet normal -0.9998299204713833 -8.137418115848946e-18 -0.018442617227162245
  outer loop
    vertex 13.5 -0.99 5.0
    vertex 13.498639479479248 0.0 5.073757922062189
    vertex 13.5 0.0 5.0
  endloop
endfacet
facet normal -0.9091380865905053 -7.39929520426966e-18 -0.4164948253106574
  outer loop
    vertex 13.193993601204438 0.0 6.063195973975832
    vertex 13.411447535713062 -0.99 5.588530643396302
    vertex 13.193993601204438 -0.99 6.063195973975832
  endloop
endfacet
facet normal -0.9091380865905053 -7.39929520426966e-18 -0.4164948253106574
  outer loop
    vertex 13.411447535713062 -0.99 5.588530643396302
    vertex 13.193993601204438 0.0 6.063195973975832
    vertex 13.411447535713062 0.0 5.588530643396302
  endloop
endfacet
facet normal 0.09387394403146122 7.640214771789887e-19 0.995584091190683
  outer loop
    vertex 11.57375792206219 -0.99 3.001360520520755
    vertex 11.05395872023027 0.0 3.0503725543731743
    vertex 11.05395872023027 -0.99 3.0503725543731743
  endloop
endfacet
facet normal 0.09387394403146122 7.640214771789887e-19 0.995584091190683
  outer loop
    vertex 11.05395872023027 0.0 3.0503725543731743
    vertex 11.57375792206219 -0.99 3.001360520520755
    vertex 11.57375792206219 0.0 3.001360520520755
  endloop
endfacet
facet normal 0.5790892658800263 4.713093083514546e-18 0.8152641425590434
  outer loop
    vertex 10.564556494496589 -0.99 3.2322484767333712
    vertex 10.138903197769478 0.0 3.5345937440566706
    vertex 10.138903197769478 -0.99 3.5345937440566706
  endloop
endfacet
facet normal 0.5790892658800263 4.713093083514546e-18 0.8152641425590434
  outer loop
    vertex 10.138903197769478 0.0 3.5345937440566706
    vertex 10.564556494496589 -0.99 3.2322484767333712
    vertex 10.564556494496589 0.0 3.2322484767333712
  endloop
endfacet
facet normal -0.34835139075683536 -2.8351631210316135e-18 -0.9373640213693817
  outer loop
    vertex 12.435443505503416 0.0 6.767751523266629
    vertex 11.946041279769734 -0.99 6.949627445626825
    vertex 11.946041279769734 0.0 6.949627445626825
  endloop
endfacet
facet normal -0.34835139075683536 -2.8351631210316135e-18 -0.9373640213693817
  outer loop
    vertex 11.946041279769734 -0.99 6.949627445626825
    vertex 12.435443505503416 0.0 6.767751523266629
    vertex 12.435443505503416 -0.99 6.767751523266629
  endloop
endfacet
facet normal -0.9410888520780145 0.3381593891857579 0.0
  outer loop
    vertex -4.444495245275249 2.2905156656800445 10.0
    vertex -4.885881819614004 1.0621482216552183 0.0
    vertex -4.885881819614004 1.0621482216552183 10.0
  endloop
endfacet
facet normal -0.9410888520780145 0.3381593891857579 0.0
  outer loop
    vertex -4.885881819614004 1.0621482216552183 0.0
    vertex -4.444495245275249 2.2905156656800445 10.0
    vertex -4.444495245275249 2.2905156656800445 0.0
  endloop
endfacet
facet normal 0.3826834323650897 -0.923879532511287 0.0
  outer loop
    vertex -1.0352761804100818 3.863703305156272 10.0
    vertex -1.9999999999999984 3.4641016151377544 0.0
    vertex -1.0352761804100818 3.863703305156272 0.0
  endloop
endfacet
facet normal 0.3826834323650897 -0.923879532511287 0.0
  outer loop
    vertex -1.9999999999999984 3.4641016151377544 0.0
    vertex -1.0352761804100818 3.863703305156272 10.0
    vertex -1.9999999999999984 3.4641016151377544 10.0
  endloop
endfacet
facet normal 0.9091380865905057 7.399295204269661e-18 0.4164948253106569
  outer loop
    vertex 9.806006398795564 0.0 3.936804026024168
    vertex 9.588552464286941 -0.99 4.411469356603699
    vertex 9.806006398795564 -0.99 3.936804026024168
  endloop
endfacet
facet normal 0.9091380865905057 7.399295204269661e-18 0.4164948253106569
  outer loop
    vertex 9.588552464286941 -0.99 4.411469356603699
    vertex 9.806006398795564 0.0 3.936804026024168
    vertex 9.588552464286941 0.0 4.411469356603699
  endloop
endfacet
facet normal -0.9238795325112868 -0.38268343236508956 -0.0
  outer loop
    vertex 3.464101615137753 1.9999999999999998 10.0
    vertex 3.863703305156272 1.0352761804100834 0.0
    vertex 3.863703305156272 1.0352761804100834 10.0
  endloop
endfacet
facet normal -0.9238795325112868 -0.38268343236508956 -0.0
  outer loop
    vertex 3.863703305156272 1.0352761804100834 0.0
    vertex 3.464101615137753 1.9999999999999998 10.0
    vertex 3.464101615137753 1.9999999999999998 0.0
  endloop
endfacet
facet normal -0.815264142559044 -6.635273727090669e-18 0.5790892658800254
  outer loop
    vertex 13.267751523266629 0.0 4.064556494496586
    vertex 12.96540625594333 -0.99 3.6389031977694772
    vertex 13.267751523266629 -0.99 4.064556494496586
  endloop
endfacet
facet normal -0.815264142559044 -6.635273727090669e-18 0.5790892658800254
  outer loop
    vertex 12.96540625594333 -0.99 3.6389031977694772
    vertex 13.267751523266629 0.0 4.064556494496586
    vertex 12.96540625594333 0.0 3.6389031977694772
  endloop
endfacet
facet normal -8.789906548281614e-18 1.0 0.0
  outer loop
    vertex 4.97441530287377 0.0 0.0
    vertex 10.138903197769478 0.0 3.5345937440566706
    vertex 15.0 0.0 0.0
  endloop
endfacet
facet normal -8.789906548281614e-18 1.0 0.0
  outer loop
    vertex 10.138903197769478 0.0 3.5345937440566706
    vertex 4.97441530287377 0.0 0.0
    vertex 9.806006398795564 0.0 3.936804026024168
  endloop
endfacet
facet normal -8.789906548281614e-18 1.0 0.0
  outer loop
    vertex 9.806006398795564 0.0 3.936804026024168
    vertex 4.97441530287377 0.0 0.0
    vertex 4.97441530287377 0.0 10.0
  endloop
endfacet
facet normal -8.789906548281614e-18 1.0 0.0
  outer loop
    vertex 15.0 0.0 0.0
    vertex 10.138903197769478 0.0 3.5345937440566706
    vertex 10.564556494496589 0.0 3.2322484767333712
  endloop
endfacet
facet normal -8.789906548281614e-18 1.0 0.0
  outer loop
    vertex 15.0 0.0 0.0
    vertex 10.564556494496589 0.0 3.2322484767333712
    vertex 11.05395872023027 0.0 3.0503725543731743
  endloop
endfacet
facet normal -8.789906548281614e-18 1.0 0.0
  outer loop
    vertex 15.0 0.0 0.0
    vertex 11.05395872023027 0.0 3.0503725543731743
    vertex 11.57375792206219 0.0 3.001360520520755
  endloop
endfacet
facet normal -8.789906548281614e-18 1.0 0.0
  outer loop
    vertex 9.806006398795564 0.0 3.936804026024168
    vertex 4.97441530287377 0.0 10.0
    vertex 9.588552464286941 0.0 4.411469356603699
  endloop
endfacet
facet normal -8.789906548281614e-18 1.0 0.0
  outer loop
    vertex 9.588552464286941 0.0 4.411469356603699
    vertex 4.97441530287377 0.0 10.0
    vertex 9.501360520520757 0.0 4.926242077937811
  endloop
endfacet
facet normal -8.789906548281614e-18 1.0 0.0
  outer loop
    vertex 9.501360520520757 0.0 4.926242077937811
    vertex 4.97441530287377 0.0 10.0
    vertex 9.550372554373178 0.0 5.446041279769732
  endloop
endfacet
facet normal -8.789906548281614e-18 1.0 0.0
  outer loop
    vertex 9.550372554373178 0.0 5.446041279769732
    vertex 4.97441530287377 0.0 10.0
    vertex 9.732248476733375 0.0 5.935443505503415
  endloop
endfacet
facet normal -8.789906548281614e-18 1.0 0.0
  outer loop
    vertex 9.732248476733375 0.0 5.935443505503415
    vertex 4.97441530287377 0.0 10.0
    vertex 10.034593744056673 0.0 6.361096802230524
  endloop
endfacet
facet normal -8.789906548281614e-18 1.0 0.0
  outer loop
    vertex 10.034593744056673 0.0 6.361096802230524
    vertex 4.97441530287377 0.0 10.0
    vertex 10.43680402602417 0.0 6.693993601204439
  endloop
endfacet
facet normal -8.789906548281614e-18 1.0 0.0
  outer loop
    vertex 10.43680402602417 0.0 6.693993601204439
    vertex 4.97441530287377 0.0 10.0
    vertex 10.9114693566037 0.0 6.911447535713062
  endloop
endfacet
facet normal -8.789906548281614e-18 1.0 0.0
  outer loop
    vertex 10.9114693566037 0.0 6.911447535713062
    vertex 4.97441530287377 0.0 10.0
    vertex 11.426242077937811 0.0 6.9986394794792455
  endloop
endfacet
facet normal -8.789906548281614e-18 1.0 0.0
  outer loop
    vertex 15.0 0.0 0.0
    vertex 13.449627445626826 0.0 4.553958720230268
    vertex 15.0 0.0 10.0
  endloop
endfacet
facet normal -8.789906548281614e-18 1.0 0.0
  outer loop
    vertex 13.449627445626826 0.0 4.553958720230268
    vertex 15.0 0.0 0.0
    vertex 13.267751523266629 0.0 4.064556494496586
  endloop
endfacet
facet normal -8.789906548281614e-18 1.0 0.0
  outer loop
    vertex 13.267751523266629 0.0 4.064556494496586
    vertex 15.0 0.0 0.0
    vertex 12.96540625594333 0.0 3.6389031977694772
  endloop
endfacet
facet normal -8.789906548281614e-18 1.0 0.0
  outer loop
    vertex 12.96540625594333 0.0 3.6389031977694772
    vertex 15.0 0.0 0.0
    vertex 12.563195973975832 0.0 3.306006398795561
  endloop
endfacet
facet normal -8.789906548281614e-18 1.0 0.0
  outer loop
    vertex 12.563195973975832 0.0 3.306006398795561
    vertex 15.0 0.0 0.0
    vertex 12.088530643396306 0.0 3.0885524642869386
  endloop
endfacet
facet normal -8.789906548281614e-18 1.0 0.0
  outer loop
    vertex 12.088530643396306 0.0 3.0885524642869386
    vertex 15.0 0.0 0.0
    vertex 11.57375792206219 0.0 3.001360520520755
  endloop
endfacet
facet normal -8.789906548281614e-18 1.0 0.0
  outer loop
    vertex 15.0 0.0 10.0
    vertex 13.449627445626826 0.0 4.553958720230268
    vertex 13.5 0.0 5.0
  endloop
endfacet
facet normal -8.789906548281614e-18 1.0 0.0
  outer loop
    vertex 15.0 0.0 10.0
    vertex 13.5 0.0 5.0
    vertex 13.498639479479248 0.0 5.073757922062189
  endloop
endfacet
facet normal -8.789906548281614e-18 1.0 0.0
  outer loop
    vertex 15.0 0.0 10.0
    vertex 13.498639479479248 0.0 5.073757922062189
    vertex 13.411447535713062 0.0 5.588530643396302
  endloop
endfacet
facet normal -8.789906548281614e-18 1.0 0.0
  outer loop
    vertex 15.0 0.0 10.0
    vertex 13.411447535713062 0.0 5.588530643396302
    vertex 13.193993601204438 0.0 6.063195973975832
  endloop
endfacet
facet normal -8.789906548281614e-18 1.0 0.0
  outer loop
    vertex 15.0 0.0 10.0
    vertex 13.193993601204438 0.0 6.063195973975832
    vertex 12.861096802230524 0.0 6.4654062559433285
  endloop
endfacet
facet normal -8.789906548281614e-18 1.0 0.0
  outer loop
    vertex 15.0 0.0 10.0
    vertex 12.861096802230524 0.0 6.4654062559433285
    vertex 12.435443505503416 0.0 6.767751523266629
  endloop
endfacet
facet normal -8.789906548281614e-18 1.0 0.0
  outer loop
    vertex 15.0 0.0 10.0
    vertex 12.435443505503416 0.0 6.767751523266629
    vertex 11.946041279769734 0.0 6.949627445626825
  endloop
endfacet
facet normal -8.789906548281614e-18 1.0 0.0
  outer loop
    vertex 15.0 0.0 10.0
    vertex 11.946041279769734 0.0 6.949627445626825
    vertex 11.426242077937811 0.0 6.9986394794792455
  endloop
endfacet
facet normal -8.789906548281614e-18 1.0 0.0
  outer loop
    vertex 15.0 0.0 10.0
    vertex 11.426242077937811 0.0 6.9986394794792455
    vertex 4.97441530287377 0.0 10.0
  endloop
endfacet
facet normal -0.0 -1.0 -0.0
  outer loop
    vertex 15.0 -0.99 0.0
    vertex 12.088530643396306 -0.99 3.0885524642869386
    vertex 3.869664027388478 -0.99 0.0
  endloop
endfacet
facet normal -0.0 -1.0 -0.0
  outer loop
    vertex 12.088530643396306 -0.99 3.0885524642869386
    vertex 15.0 -0.99 0.0
    vertex 12.563195973975832 -0.99 3.306006398795561
  endloop
endfacet
facet normal -0.0 -1.0 -0.0
  outer loop
    vertex 12.563195973975832 -0.99 3.306006398795561
    vertex 15.0 -0.99 0.0
    vertex 12.96540625594333 -0.99 3.6389031977694772
  endloop
endfacet
facet normal -0.0 -1.0 -0.0
  outer loop
    vertex 12.96540625594333 -0.99 3.6389031977694772
    vertex 15.0 -0.99 0.0
    vertex 13.267751523266629 -0.99 4.064556494496586
  endloop
endfacet
facet normal -0.0 -1.0 -0.0
  outer loop
    vertex 13.267751523266629 -0.99 4.064556494496586
    vertex 15.0 -0.99 0.0
    vertex 13.449627445626826 -0.99 4.553958720230268
  endloop
endfacet
facet normal -0.0 -1.0 -0.0
  outer loop
    vertex 13.449627445626826 -0.99 4.553958720230268
    vertex 15.0 -0.99 0.0
    vertex 15.0 -0.99 10.0
  endloop
endfacet
facet normal -0.0 -1.0 -0.0
  outer loop
    vertex 3.869664027388478 -0.99 0.0
    vertex 12.088530643396306 -0.99 3.0885524642869386
    vertex 11.57375792206219 -0.99 3.001360520520755
  endloop
endfacet
facet normal -0.0 -1.0 -0.0
  outer loop
    vertex 13.449627445626826 -0.99 4.553958720230268
    vertex 15.0 -0.99 10.0
    vertex 13.5 -0.99 5.0
  endloop
endfacet
facet normal -0.0 -1.0 -0.0
  outer loop
    vertex 13.5 -0.99 5.0
    vertex 15.0 -0.99 10.0
    vertex 13.498639479479248 -0.99 5.073757922062189
  endloop
endfacet
facet normal -0.0 -1.0 -0.0
  outer loop
    vertex 13.498639479479248 -0.99 5.073757922062189
    vertex 15.0 -0.99 10.0
    vertex 13.411447535713062 -0.99 5.588530643396302
  endloop
endfacet
facet normal -0.0 -1.0 -0.0
  outer loop
    vertex 13.411447535713062 -0.99 5.588530643396302
    vertex 15.0 -0.99 10.0
    vertex 13.193993601204438 -0.99 6.063195973975832
  endloop
endfacet
facet normal -0.0 -1.0 -0.0
  outer loop
    vertex 13.193993601204438 -0.99 6.063195973975832
    vertex 15.0 -0.99 10.0
    vertex 12.861096802230524 -0.99 6.4654062559433285
  endloop
endfacet
facet normal -0.0 -1.0 -0.0
  outer loop
    vertex 12.861096802230524 -0.99 6.4654062559433285
    vertex 15.0 -0.99 10.0
    vertex 12.435443505503416 -0.99 6.767751523266629
  endloop
endfacet
facet normal -0.0 -1.0 -0.0
  outer loop
    vertex 12.435443505503416 -0.99 6.767751523266629
    vertex 15.0 -0.99 10.0
    vertex 11.946041279769734 -0.99 6.949627445626825
  endloop
endfacet
facet normal -0.0 -1.0 -0.0
  outer loop
    vertex 11.946041279769734 -0.99 6.949627445626825
    vertex 15.0 -0.99 10.0
    vertex 11.426242077937811 -0.99 6.9986394794792455
  endloop
endfacet
facet normal -0.0 -1.0 -0.0
  outer loop
    vertex 3.869664027388478 -0.99 0.0
    vertex 10.138903197769478 -0.99 3.5345937440566706
    vertex 3.869664027388478 -0.99 10.0
  endloop
endfacet
facet normal -0.0 -1.0 -0.0
  outer loop
    vertex 10.138903197769478 -0.99 3.5345937440566706
    vertex 3.869664027388478 -0.99 0.0
    vertex 10.564556494496589 -0.99 3.2322484767333712
  endloop
endfacet
facet normal -0.0 -1.0 -0.0
  outer loop
    vertex 10.564556494496589 -0.99 3.2322484767333712
    vertex 3.869664027388478 -0.99 0.0
    vertex 11.05395872023027 -0.99 3.0503725543731743
  endloop
endfacet
facet normal -0.0 -1.0 -0.0
  outer loop
    vertex 11.05395872023027 -0.99 3.0503725543731743
    vertex 3.869664027388478 -0.99 0.0
    vertex 11.57375792206219 -0.99 3.001360520520755
  endloop
endfacet
facet normal -0.0 -1.0 -0.0
  outer loop
    vertex 3.869664027388478 -0.99 10.0
    vertex 10.138903197769478 -0.99 3.5345937440566706
    vertex 9.806006398795564 -0.99 3.936804026024168
  endloop
endfacet
facet normal -0.0 -1.0 -0.0
  outer loop
    vertex 3.869664027388478 -0.99 10.0
    vertex 9.806006398795564 -0.99 3.936804026024168
    vertex 9.588552464286941 -0.99 4.411469356603699
  endloop
endfacet
facet normal -0.0 -1.0 -0.0
  outer loop
    vertex 3.869664027388478 -0.99 10.0
    vertex 9.588552464286941 -0.99 4.411469356603699
    vertex 9.501360520520757 -0.99 4.926242077937811
  endloop
endfacet
facet normal -0.0 -1.0 -0.0
  outer loop
    vertex 3.869664027388478 -0.99 10.0
    vertex 9.501360520520757 -0.99 4.926242077937811
    vertex 9.550372554373178 -0.99 5.446041279769732
  endloop
endfacet
facet normal -0.0 -1.0 -0.0
  outer loop
    vertex 3.869664027388478 -0.99 10.0
    vertex 9.550372554373178 -0.99 5.446041279769732
    vertex 9.732248476733375 -0.99 5.935443505503415
  endloop
endfacet
facet normal -0.0 -1.0 -0.0
  outer loop
    vertex 3.869664027388478 -0.99 10.0
    vertex 9.732248476733375 -0.99 5.935443505503415
    vertex 10.034593744056673 -0.99 6.361096802230524
  endloop
endfacet
facet normal -0.0 -1.0 -0.0
  outer loop
    vertex 3.869664027388478 -0.99 10.0
    vertex 10.034593744056673 -0.99 6.361096802230524
    vertex 10.43680402602417 -0.99 6.693993601204439
  endloop
endfacet
facet normal -0.0 -1.0 -0.0
  outer loop
    vertex 3.869664027388478 -0.99 10.0
    vertex 10.43680402602417 -0.99 6.693993601204439
    vertex 10.9114693566037 -0.99 6.911447535713062
  endloop
endfacet
facet normal -0.0 -1.0 -0.0
  outer loop
    vertex 3.869664027388478 -0.99 10.0
    vertex 10.9114693566037 -0.99 6.911447535713062
    vertex 11.426242077937811 -0.99 6.9986394794792455
  endloop
endfacet
facet normal -0.0 -1.0 -0.0
  outer loop
    vertex 3.869664027388478 -0.99 10.0
    vertex 11.426242077937811 -0.99 6.9986394794792455
    vertex 15.0 -0.99 10.0
  endloop
endfacet
facet normal 0.9914448613738106 0.13052619222005124 0.0
  outer loop
    vertex -3.999999999999999 7.049916206369744e-16 0.0
    vertex -3.863703305156273 -1.0352761804100812 10.0
    vertex -3.863703305156273 -1.0352761804100812 0.0
  endloop
endfacet
facet normal 0.9914448613738106 0.13052619222005124 0.0
  outer loop
    vertex -3.863703305156273 -1.0352761804100812 10.0
    vertex -3.999999999999999 7.049916206369744e-16 0.0
    vertex -3.999999999999999 7.049916206369744e-16 10.0
  endloop
endfacet
facet normal 0.6087614290087202 -0.7933533402912355 0.0
  outer loop
    vertex -1.9999999999999984 3.4641016151377544 10.0
    vertex -2.8284271247461894 2.8284271247461894 0.0
    vertex -1.9999999999999984 3.4641016151377544 0.0
  endloop
endfacet
facet normal 0.6087614290087202 -0.7933533402912355 0.0
  outer loop
    vertex -2.8284271247461894 2.8284271247461894 0.0
    vertex -1.9999999999999984 3.4641016151377544 10.0
    vertex -2.8284271247461894 2.8284271247461894 10.0
  endloop
endfacet
facet normal -0.33815938918575783 -0.9410888520780145 -0.0
  outer loop
    vertex -1.0621482216552196 -4.885881819614004 10.0
    vertex -2.2905156656800445 -4.444495245275249 0.0
    vertex -1.0621482216552196 -4.885881819614004 0.0
  endloop
endfacet
facet normal -0.33815938918575783 -0.9410888520780145 -0.0
  outer loop
    vertex -2.2905156656800445 -4.444495245275249 0.0
    vertex -1.0621482216552196 -4.885881819614004 10.0
    vertex -2.2905156656800445 -4.444495245275249 10.0
  endloop
endfacet
facet normal 0.9238795325112871 0.38268343236508934 0.0
  outer loop
    vertex -3.863703305156273 -1.0352761804100812 0.0
    vertex -3.4641016151377544 -1.999999999999999 10.0
    vertex -3.4641016151377544 -1.999999999999999 0.0
  endloop
endfacet
facet normal 0.9238795325112871 0.38268343236508934 0.0
  outer loop
    vertex -3.4641016151377544 -1.999999999999999 10.0
    vertex -3.863703305156273 -1.0352761804100812 0.0
    vertex -3.863703305156273 -1.0352761804100812 10.0
  endloop
endfacet
facet normal -0.09946973211775974 -0.9950405883140754 -0.0
  outer loop
    vertex 0.0 -4.9920599999999995 10.0
    vertex -1.0621482216552196 -4.885881819614004 0.0
    vertex 0.0 -4.9920599999999995 0.0
  endloop
endfacet
facet normal -0.09946973211775974 -0.9950405883140754 -0.0
  outer loop
    vertex -1.0621482216552196 -4.885881819614004 0.0
    vertex 0.0 -4.9920599999999995 10.0
    vertex -1.0621482216552196 -4.885881819614004 10.0
  endloop
endfacet
facet normal 0.9840865477107757 0.17768980447591054 0.0
  outer loop
    vertex 4.762371886501877 1.5230935672691137 0.0
    vertex 4.994303622247536 0.23860286839247938 10.0
    vertex 4.994303622247536 0.23860286839247938 0.0
  endloop
endfacet
facet normal 0.9840865477107757 0.17768980447591054 0.0
  outer loop
    vertex 4.994303622247536 0.23860286839247938 10.0
    vertex 4.762371886501877 1.5230935672691137 0.0
    vertex 4.762371886501877 1.5230935672691137 10.0
  endloop
endfacet
facet normal -0.6087614290087205 -0.7933533402912353 -0.0
  outer loop
    vertex 2.8284271247461894 2.8284271247461894 10.0
    vertex 1.9999999999999998 3.4641016151377544 0.0
    vertex 2.8284271247461894 2.8284271247461894 0.0
  endloop
endfacet
facet normal -0.6087614290087205 -0.7933533402912353 -0.0
  outer loop
    vertex 1.9999999999999998 3.4641016151377544 0.0
    vertex 2.8284271247461894 2.8284271247461894 10.0
    vertex 1.9999999999999998 3.4641016151377544 10.0
  endloop
endfacet
facet normal -0.3826834323650902 -0.9238795325112865 -0.0
  outer loop
    vertex 1.9999999999999998 3.4641016151377544 10.0
    vertex 1.0352761804100834 3.863703305156272 0.0
    vertex 1.9999999999999998 3.4641016151377544 0.0
  endloop
endfacet
facet normal -0.3826834323650902 -0.9238795325112865 -0.0
  outer loop
    vertex 1.0352761804100834 3.863703305156272 0.0
    vertex 1.9999999999999998 3.4641016151377544 10.0
    vertex 1.0352761804100834 3.863703305156272 10.0
  endloop
endfacet
facet normal 0.9955840911906829 8.102862150481242e-18 -0.09387394403146133
  outer loop
    vertex 9.501360520520757 0.0 4.926242077937811
    vertex 9.550372554373178 -0.99 5.446041279769732
    vertex 9.501360520520757 -0.99 4.926242077937811
  endloop
endfacet
facet normal 0.9955840911906829 8.102862150481242e-18 -0.09387394403146133
  outer loop
    vertex 9.550372554373178 -0.99 5.446041279769732
    vertex 9.501360520520757 0.0 4.926242077937811
    vertex 9.550372554373178 0.0 5.446041279769732
  endloop
endfacet
facet normal 1.0 0.0 0.0
  outer loop
    vertex 15.0 -3.9999999999999996 0.0
    vertex 15.0 -4.9920599999999995 10.0
    vertex 15.0 -4.9920599999999995 0.0
  endloop
endfacet
facet normal 1.0 0.0 0.0
  outer loop
    vertex 15.0 -4.9920599999999995 10.0
    vertex 15.0 -3.9999999999999996 0.0
    vertex 15.0 -3.9999999999999996 10.0
  endloop
endfacet
facet normal -0.0 -1.0 -0.0
  outer loop
    vertex 15.0 -4.9920599999999995 0.0
    vertex 12.017638090205045 -4.9920599999999995 3.068148347421863
    vertex 0.0 -4.9920599999999995 0.0
  endloop
endfacet
facet normal -0.0 -1.0 -0.0
  outer loop
    vertex 12.017638090205045 -4.9920599999999995 3.068148347421863
    vertex 15.0 -4.9920599999999995 0.0
    vertex 12.500000000000002 -4.9920599999999995 3.2679491924311224
  endloop
endfacet
facet normal -0.0 -1.0 -0.0
  outer loop
    vertex 12.500000000000002 -4.9920599999999995 3.2679491924311224
    vertex 15.0 -4.9920599999999995 0.0
    vertex 12.914213562373094 -4.9920599999999995 3.585786437626905
  endloop
endfacet
facet normal -0.0 -1.0 -0.0
  outer loop
    vertex 12.914213562373094 -4.9920599999999995 3.585786437626905
    vertex 15.0 -4.9920599999999995 0.0
    vertex 13.232050807568877 -4.9920599999999995 3.9999999999999996
  endloop
endfacet
facet normal -0.0 -1.0 -0.0
  outer loop
    vertex 13.232050807568877 -4.9920599999999995 3.9999999999999996
    vertex 15.0 -4.9920599999999995 0.0
    vertex 13.431851652578137 -4.9920599999999995 4.482361909794958
  endloop
endfacet
facet normal -0.0 -1.0 -0.0
  outer loop
    vertex 13.431851652578137 -4.9920599999999995 4.482361909794958
    vertex 15.0 -4.9920599999999995 0.0
    vertex 15.0 -4.9920599999999995 10.0
  endloop
endfacet
facet normal -0.0 -1.0 -0.0
  outer loop
    vertex 0.0 -4.9920599999999995 0.0
    vertex 12.017638090205045 -4.9920599999999995 3.068148347421863
    vertex 11.500000000000002 -4.9920599999999995 2.9999999999999996
  endloop
endfacet
facet normal -0.0 -1.0 -0.0
  outer loop
    vertex 13.431851652578137 -4.9920599999999995 4.482361909794958
    vertex 15.0 -4.9920599999999995 10.0
    vertex 13.5 -4.9920599999999995 5.0
  endloop
endfacet
facet normal -0.0 -1.0 -0.0
  outer loop
    vertex 13.5 -4.9920599999999995 5.0
    vertex 15.0 -4.9920599999999995 10.0
    vertex 13.431851652578137 -4.9920599999999995 5.517638090205043
  endloop
endfacet
facet normal -0.0 -1.0 -0.0
  outer loop
    vertex 13.431851652578137 -4.9920599999999995 5.517638090205043
    vertex 15.0 -4.9920599999999995 10.0
    vertex 13.232050807568877 -4.9920599999999995 6.000000000000001
  endloop
endfacet
facet normal -0.0 -1.0 -0.0
  outer loop
    vertex 13.232050807568877 -4.9920599999999995 6.000000000000001
    vertex 15.0 -4.9920599999999995 10.0
    vertex 12.914213562373094 -4.9920599999999995 6.414213562373095
  endloop
endfacet
facet normal -0.0 -1.0 -0.0
  outer loop
    vertex 12.914213562373094 -4.9920599999999995 6.414213562373095
    vertex 15.0 -4.9920599999999995 10.0
    vertex 12.5 -4.9920599999999995 6.732050807568879
  endloop
endfacet
facet normal -0.0 -1.0 -0.0
  outer loop
    vertex 12.5 -4.9920599999999995 6.732050807568879
    vertex 15.0 -4.9920599999999995 10.0
    vertex 12.017638090205041 -4.9920599999999995 6.931851652578138
  endloop
endfacet
facet normal -0.0 -1.0 -0.0
  outer loop
    vertex 12.017638090205041 -4.9920599999999995 6.931851652578138
    vertex 15.0 -4.9920599999999995 10.0
    vertex 11.500000000000002 -4.9920599999999995 7.000000000000001
  endloop
endfacet
facet normal -0.0 -1.0 -0.0
  outer loop
    vertex 0.0 -4.9920599999999995 0.0
    vertex 10.5 -4.9920599999999995 3.2679491924311224
    vertex 0.0 -4.9920599999999995 10.0
  endloop
endfacet
facet normal -0.0 -1.0 -0.0
  outer loop
    vertex 10.5 -4.9920599999999995 3.2679491924311224
    vertex 0.0 -4.9920599999999995 0.0
    vertex 10.982361909794959 -4.9920599999999995 3.068148347421863
  endloop
endfacet
facet normal -0.0 -1.0 -0.0
  outer loop
    vertex 10.982361909794959 -4.9920599999999995 3.068148347421863
    vertex 0.0 -4.9920599999999995 0.0
    vertex 11.500000000000002 -4.9920599999999995 2.9999999999999996
  endloop
endfacet
facet normal -0.0 -1.0 -0.0
  outer loop
    vertex 0.0 -4.9920599999999995 10.0
    vertex 10.5 -4.9920599999999995 3.2679491924311224
    vertex 10.085786437626906 -4.9920599999999995 3.585786437626904
  endloop
endfacet
facet normal -0.0 -1.0 -0.0
  outer loop
    vertex 0.0 -4.9920599999999995 10.0
    vertex 10.085786437626906 -4.9920599999999995 3.585786437626904
    vertex 9.767949192431123 -4.9920599999999995 3.999999999999999
  endloop
endfacet
facet normal -0.0 -1.0 -0.0
  outer loop
    vertex 0.0 -4.9920599999999995 10.0
    vertex 9.767949192431123 -4.9920599999999995 3.999999999999999
    vertex 9.568148347421863 -4.9920599999999995 4.482361909794958
  endloop
endfacet
facet normal -0.0 -1.0 -0.0
  outer loop
    vertex 0.0 -4.9920599999999995 10.0
    vertex 9.568148347421863 -4.9920599999999995 4.482361909794958
    vertex 9.5 -4.9920599999999995 5.0
  endloop
endfacet
facet normal -0.0 -1.0 -0.0
  outer loop
    vertex 0.0 -4.9920599999999995 10.0
    vertex 9.5 -4.9920599999999995 5.0
    vertex 9.568148347421863 -4.9920599999999995 5.517638090205041
  endloop
endfacet
facet normal -0.0 -1.0 -0.0
  outer loop
    vertex 0.0 -4.9920599999999995 10.0
    vertex 9.568148347421863 -4.9920599999999995 5.517638090205041
    vertex 9.767949192431123 -4.9920599999999995 6.0
  endloop
endfacet
facet normal -0.0 -1.0 -0.0
  outer loop
    vertex 0.0 -4.9920599999999995 10.0
    vertex 9.767949192431123 -4.9920599999999995 6.0
    vertex 10.085786437626906 -4.9920599999999995 6.414213562373095
  endloop
endfacet
facet normal -0.0 -1.0 -0.0
  outer loop
    vertex 0.0 -4.9920599999999995 10.0
    vertex 10.085786437626906 -4.9920599999999995 6.414213562373095
    vertex 10.5 -4.9920599999999995 6.732050807568878
  endloop
endfacet
facet normal -0.0 -1.0 -0.0
  outer loop
    vertex 0.0 -4.9920599999999995 10.0
    vertex 10.5 -4.9920599999999995 6.732050807568878
    vertex 10.982361909794959 -4.9920599999999995 6.931851652578136
  endloop
endfacet
facet normal -0.0 -1.0 -0.0
  outer loop
    vertex 0.0 -4.9920599999999995 10.0
    vertex 10.982361909794959 -4.9920599999999995 6.931851652578136
    vertex 11.500000000000002 -4.9920599999999995 7.000000000000001
  endloop
endfacet
facet normal -0.0 -1.0 -0.0
  outer loop
    vertex 0.0 -4.9920599999999995 10.0
    vertex 11.500000000000002 -4.9920599999999995 7.000000000000001
    vertex 15.0 -4.9920599999999995 10.0
  endloop
endfacet
facet normal -0.9914448613738105 0.13052619222005163 0.0
  outer loop
    vertex 3.999999999999999 0.0 10.0
    vertex 3.869664027388478 -0.99 0.0
    vertex 3.869664027388478 -0.99 10.0
  endloop
endfacet
facet normal -0.9914448613738105 0.13052619222005163 0.0
  outer loop
    vertex 3.869664027388478 -0.99 0.0
    vertex 3.999999999999999 0.0 10.0
    vertex 3.999999999999999 0.0 0.0
  endloop
endfacet
facet normal -0.7703631645237524 -6.269833541110538e-18 -0.6376053597210033
  outer loop
    vertex 12.861096802230524 0.0 6.4654062559433285
    vertex 13.193993601204438 -0.99 6.063195973975832
    vertex 12.861096802230524 -0.99 6.4654062559433285
  endloop
endfacet
facet normal -0.7703631645237524 -6.269833541110538e-18 -0.6376053597210033
  outer loop
    vertex 13.193993601204438 -0.99 6.063195973975832
    vertex 12.861096802230524 0.0 6.4654062559433285
    vertex 13.193993601204438 0.0 6.063195973975832
  endloop
endfacet
facet normal 0.3483513907568366 2.8351631210316235e-18 0.9373640213693812
  outer loop
    vertex 11.05395872023027 -0.99 3.0503725543731743
    vertex 10.564556494496589 0.0 3.2322484767333712
    vertex 10.564556494496589 -0.99 3.2322484767333712
  endloop
endfacet
facet normal 0.3483513907568366 2.8351631210316235e-18 0.9373640213693812
  outer loop
    vertex 10.564556494496589 0.0 3.2322484767333712
    vertex 11.05395872023027 -0.99 3.0503725543731743
    vertex 11.05395872023027 0.0 3.0503725543731743
  endloop
endfacet
facet normal 0.5702086054681191 0.8214999368533772 0.0
  outer loop
    vertex 2.2905156656800445 4.44449524527525 10.0
    vertex 3.3627882523448855 3.7002236648466567 0.0
    vertex 2.2905156656800445 4.44449524527525 0.0
  endloop
endfacet
facet normal 0.5702086054681191 0.8214999368533772 0.0
  outer loop
    vertex 3.3627882523448855 3.7002236648466567 0.0
    vertex 2.2905156656800445 4.44449524527525 10.0
    vertex 3.3627882523448855 3.7002236648466567 10.0
  endloop
endfacet
facet normal 0.9045651062185782 0.4263355117882772 0.0
  outer loop
    vertex 4.205892376882767 2.7037879565674934 0.0
    vertex 4.762371886501877 1.5230935672691137 10.0
    vertex 4.762371886501877 1.5230935672691137 0.0
  endloop
endfacet
facet normal 0.9045651062185782 0.4263355117882772 0.0
  outer loop
    vertex 4.762371886501877 1.5230935672691137 10.0
    vertex 4.205892376882767 2.7037879565674934 0.0
    vertex 4.205892376882767 2.7037879565674934 10.0
  endloop
endfacet
facet normal 0.3826834323650905 0.9238795325112865 0.0
  outer loop
    vertex -2.0000000000000013 -3.464101615137753 10.0
    vertex -1.035276180410086 -3.863703305156272 0.0
    vertex -2.0000000000000013 -3.464101615137753 0.0
  endloop
endfacet
facet normal 0.3826834323650905 0.9238795325112865 0.0
  outer loop
    vertex -1.035276180410086 -3.863703305156272 0.0
    vertex -2.0000000000000013 -3.464101615137753 10.0
    vertex -1.035276180410086 -3.863703305156272 10.0
  endloop
endfacet
facet normal 0.1305261922200518 -0.9914448613738104 0.0
  outer loop
    vertex 0.0 3.999999999999999 10.0
    vertex -1.0352761804100818 3.863703305156272 0.0
    vertex 0.0 3.999999999999999 0.0
  endloop
endfacet
facet normal 0.1305261922200518 -0.9914448613738104 0.0
  outer loop
    vertex -1.0352761804100818 3.863703305156272 0.0
    vertex 0.0 3.999999999999999 10.0
    vertex -1.0352761804100818 3.863703305156272 10.0
  endloop
endfacet
facet normal 0.4164948253106574 3.3897690669667034e-18 -0.9091380865905053
  outer loop
    vertex 10.9114693566037 0.0 6.911447535713062
    vertex 10.43680402602417 -0.99 6.693993601204439
    vertex 10.43680402602417 0.0 6.693993601204439
  endloop
endfacet
facet normal 0.4164948253106574 3.3897690669667034e-18 -0.9091380865905053
  outer loop
    vertex 10.43680402602417 -0.99 6.693993601204439
    vertex 10.9114693566037 0.0 6.911447535713062
    vertex 10.9114693566037 -0.99 6.911447535713062
  endloop
endfacet
endsolid Ferma Cavi
